solid CATIA STL
  facet normal  1.000000e+000  0.000000e+000  0.000000e+000
    outer loop
      vertex  6.716557e+001 -1.295588e+001  2.852977e+001
      vertex  6.716557e+001 -1.295588e+001  2.451449e+001
      vertex  6.716557e+001 -4.955881e+000  2.852977e+001
    endloop
  endfacet
  facet normal  1.000000e+000  0.000000e+000  0.000000e+000
    outer loop
      vertex  6.716557e+001 -4.955881e+000  2.852977e+001
      vertex  6.716557e+001 -1.295588e+001  2.451449e+001
      vertex  6.716557e+001 -4.955881e+000  2.451449e+001
    endloop
  endfacet
  facet normal -5.873879e-001 -8.084692e-001 -3.678237e-002
    outer loop
      vertex  8.153513e+001  3.770939e+000  3.396896e+001
      vertex  8.212135e+001  3.527010e+000  2.996895e+001
      vertex  8.351762e+001  2.330569e+000  3.396896e+001
    endloop
  endfacet
  facet normal -2.169842e-001 -9.757819e-001  2.770516e-002
    outer loop
      vertex  8.016380e+001  3.962308e+000  2.996895e+001
      vertex  8.212135e+001  3.527010e+000  2.996895e+001
      vertex  8.153513e+001  3.770939e+000  3.396896e+001
    endloop
  endfacet
  facet normal  0.000000e+000 -9.988576e-001 -4.778765e-002
    outer loop
      vertex  7.908462e+001  3.770939e+000  3.396896e+001
      vertex  8.016380e+001  3.962308e+000  2.996895e+001
      vertex  8.153513e+001  3.770939e+000  3.396896e+001
    endloop
  endfacet
  facet normal  2.882059e-001 -9.570345e-001  3.197013e-002
    outer loop
      vertex  7.908462e+001  3.770939e+000  3.396896e+001
      vertex  7.824363e+001  3.384058e+000  2.996895e+001
      vertex  8.016380e+001  3.962308e+000  2.996895e+001
    endloop
  endfacet
  facet normal  5.871826e-001 -8.081867e-001 -4.528538e-002
    outer loop
      vertex  7.824363e+001  3.384058e+000  2.996895e+001
      vertex  7.908462e+001  3.770939e+000  3.396896e+001
      vertex  7.710212e+001  2.330569e+000  3.396896e+001
    endloop
  endfacet
  facet normal -6.669301e-001 -7.450538e-001  9.951631e-003
    outer loop
      vertex  8.212135e+001  3.527010e+000  2.996895e+001
      vertex  8.361552e+001  2.189513e+000  2.996895e+001
      vertex  8.351762e+001  2.330569e+000  3.396896e+001
    endloop
  endfacet
  facet normal -9.573441e-001 -2.886460e-001 -1.325046e-002
    outer loop
      vertex  8.351762e+001  2.330569e+000  3.396896e+001
      vertex  8.361552e+001  2.189513e+000  2.996895e+001
      vertex  8.427487e+001  0.000000e+000  3.002664e+001
    endloop
  endfacet
  facet normal -9.510565e-001 -3.090171e-001  0.000000e+000
    outer loop
      vertex  8.351762e+001  2.330569e+000  3.396896e+001
      vertex  8.427487e+001  0.000000e+000  3.002664e+001
      vertex  8.427487e+001  0.000000e+000  3.396896e+001
    endloop
  endfacet
  facet normal  7.198272e-001 -6.937820e-001  2.269946e-002
    outer loop
      vertex  7.824363e+001  3.384058e+000  2.996895e+001
      vertex  7.710212e+001  2.330569e+000  3.396896e+001
      vertex  7.685199e+001  1.940175e+000  2.996895e+001
    endloop
  endfacet
  facet normal  9.506482e-001 -3.088844e-001 -2.929969e-002
    outer loop
      vertex  7.685199e+001  1.940175e+000  2.996895e+001
      vertex  7.710212e+001  2.330569e+000  3.396896e+001
      vertex  7.634487e+001 -4.855724e-016  3.396896e+001
    endloop
  endfacet
  facet normal  9.674972e-001 -2.528821e-001  0.000000e+000
    outer loop
      vertex  7.685199e+001  1.940175e+000  2.996895e+001
      vertex  7.634487e+001 -4.855724e-016  3.396896e+001
      vertex  7.634487e+001 -4.855724e-016  2.996895e+001
    endloop
  endfacet
  facet normal  5.871826e-001  8.081867e-001 -4.528538e-002
    outer loop
      vertex  7.908462e+001 -3.770939e+000  3.396896e+001
      vertex  7.824363e+001 -3.384058e+000  2.996895e+001
      vertex  7.710212e+001 -2.330569e+000  3.396896e+001
    endloop
  endfacet
  facet normal  2.882059e-001  9.570345e-001  3.197013e-002
    outer loop
      vertex  8.016380e+001 -3.962308e+000  2.996895e+001
      vertex  7.824363e+001 -3.384058e+000  2.996895e+001
      vertex  7.908462e+001 -3.770939e+000  3.396896e+001
    endloop
  endfacet
  facet normal  0.000000e+000  9.988576e-001 -4.778765e-002
    outer loop
      vertex  8.153513e+001 -3.770939e+000  3.396896e+001
      vertex  8.016380e+001 -3.962308e+000  2.996895e+001
      vertex  7.908462e+001 -3.770939e+000  3.396896e+001
    endloop
  endfacet
  facet normal -2.169842e-001  9.757819e-001  2.770516e-002
    outer loop
      vertex  8.153513e+001 -3.770939e+000  3.396896e+001
      vertex  8.212135e+001 -3.527010e+000  2.996895e+001
      vertex  8.016380e+001 -3.962308e+000  2.996895e+001
    endloop
  endfacet
  facet normal -5.873879e-001  8.084692e-001 -3.678237e-002
    outer loop
      vertex  8.212135e+001 -3.527010e+000  2.996895e+001
      vertex  8.153513e+001 -3.770939e+000  3.396896e+001
      vertex  8.351762e+001 -2.330569e+000  3.396896e+001
    endloop
  endfacet
  facet normal  7.198273e-001  6.937820e-001  2.269946e-002
    outer loop
      vertex  7.824363e+001 -3.384058e+000  2.996895e+001
      vertex  7.685199e+001 -1.940175e+000  2.996895e+001
      vertex  7.710212e+001 -2.330569e+000  3.396896e+001
    endloop
  endfacet
  facet normal  9.668770e-001  2.527200e-001 -3.579608e-002
    outer loop
      vertex  7.710212e+001 -2.330569e+000  3.396896e+001
      vertex  7.685199e+001 -1.940175e+000  2.996895e+001
      vertex  7.634487e+001 -4.855724e-016  2.996895e+001
    endloop
  endfacet
  facet normal  9.510565e-001  3.090171e-001  -0.000000e+000
    outer loop
      vertex  7.710212e+001 -2.330569e+000  3.396896e+001
      vertex  7.634487e+001 -4.855724e-016  2.996895e+001
      vertex  7.634487e+001 -4.855724e-016  3.396896e+001
    endloop
  endfacet
  facet normal -6.669301e-001  7.450538e-001  9.951631e-003
    outer loop
      vertex  8.212135e+001 -3.527010e+000  2.996895e+001
      vertex  8.351762e+001 -2.330569e+000  3.396896e+001
      vertex  8.361552e+001 -2.189513e+000  2.996895e+001
    endloop
  endfacet
  facet normal -9.509836e-001  3.089935e-001 -1.237727e-002
    outer loop
      vertex  8.361552e+001 -2.189513e+000  2.996895e+001
      vertex  8.351762e+001 -2.330569e+000  3.396896e+001
      vertex  8.427487e+001  0.000000e+000  3.396896e+001
    endloop
  endfacet
  facet normal -9.575247e-001  2.883513e-001  0.000000e+000
    outer loop
      vertex  8.361552e+001 -2.189513e+000  2.996895e+001
      vertex  8.427487e+001  0.000000e+000  3.396896e+001
      vertex  8.427487e+001  0.000000e+000  3.002664e+001
    endloop
  endfacet
  facet normal  0.000000e+000  0.000000e+000 -1.000000e+000
    outer loop
      vertex  8.361552e+001  4.955881e+000  2.996895e+001
      vertex  8.361552e+001  2.189513e+000  2.996895e+001
      vertex  8.212135e+001  3.527010e+000  2.996895e+001
    endloop
  endfacet
  facet normal  0.000000e+000  0.000000e+000 -9.999999e-001
    outer loop
      vertex  8.361552e+001  4.955881e+000  2.996895e+001
      vertex  8.212135e+001  3.527010e+000  2.996895e+001
      vertex  8.016380e+001  3.962308e+000  2.996895e+001
    endloop
  endfacet
  facet normal  0.000000e+000  0.000000e+000 -1.000000e+000
    outer loop
      vertex  8.361552e+001  4.955881e+000  2.996895e+001
      vertex  8.016380e+001  3.962308e+000  2.996895e+001
      vertex  6.150000e+001  4.955881e+000  2.996895e+001
    endloop
  endfacet
  facet normal  -0.000000e+000  0.000000e+000 -1.000000e+000
    outer loop
      vertex  6.150000e+001  4.955881e+000  2.996895e+001
      vertex  8.016380e+001  3.962308e+000  2.996895e+001
      vertex  7.824363e+001  3.384058e+000  2.996895e+001
    endloop
  endfacet
  facet normal  -0.000000e+000  0.000000e+000 -1.000000e+000
    outer loop
      vertex  6.150000e+001  4.955881e+000  2.996895e+001
      vertex  7.824363e+001  3.384058e+000  2.996895e+001
      vertex  7.685199e+001  1.940175e+000  2.996895e+001
    endloop
  endfacet
  facet normal  -0.000000e+000  0.000000e+000 -1.000000e+000
    outer loop
      vertex  6.150000e+001  4.955881e+000  2.996895e+001
      vertex  7.685199e+001  1.940175e+000  2.996895e+001
      vertex  7.634487e+001 -4.855724e-016  2.996895e+001
    endloop
  endfacet
  facet normal  -0.000000e+000  0.000000e+000 -1.000000e+000
    outer loop
      vertex  6.150000e+001  4.955881e+000  2.996895e+001
      vertex  7.634487e+001 -4.855724e-016  2.996895e+001
      vertex  6.150000e+001 -4.955881e+000  2.996895e+001
    endloop
  endfacet
  facet normal  0.000000e+000  -0.000000e+000 -1.000000e+000
    outer loop
      vertex  6.150000e+001 -4.955881e+000  2.996895e+001
      vertex  7.634487e+001 -4.855724e-016  2.996895e+001
      vertex  7.685199e+001 -1.940175e+000  2.996895e+001
    endloop
  endfacet
  facet normal  0.000000e+000  -0.000000e+000 -1.000000e+000
    outer loop
      vertex  6.150000e+001 -4.955881e+000  2.996895e+001
      vertex  7.685199e+001 -1.940175e+000  2.996895e+001
      vertex  7.824363e+001 -3.384058e+000  2.996895e+001
    endloop
  endfacet
  facet normal  0.000000e+000  -0.000000e+000 -1.000000e+000
    outer loop
      vertex  6.150000e+001 -4.955881e+000  2.996895e+001
      vertex  7.824363e+001 -3.384058e+000  2.996895e+001
      vertex  8.016380e+001 -3.962308e+000  2.996895e+001
    endloop
  endfacet
  facet normal  0.000000e+000  0.000000e+000 -1.000000e+000
    outer loop
      vertex  8.361552e+001 -4.955881e+000  2.996895e+001
      vertex  6.150000e+001 -4.955881e+000  2.996895e+001
      vertex  8.016380e+001 -3.962308e+000  2.996895e+001
    endloop
  endfacet
  facet normal  0.000000e+000  0.000000e+000 -1.000000e+000
    outer loop
      vertex  8.361552e+001 -4.955881e+000  2.996895e+001
      vertex  8.016380e+001 -3.962308e+000  2.996895e+001
      vertex  8.212135e+001 -3.527010e+000  2.996895e+001
    endloop
  endfacet
  facet normal  0.000000e+000  0.000000e+000 -1.000000e+000
    outer loop
      vertex  8.361552e+001 -4.955881e+000  2.996895e+001
      vertex  8.212135e+001 -3.527010e+000  2.996895e+001
      vertex  8.361552e+001 -2.189513e+000  2.996895e+001
    endloop
  endfacet
  facet normal  0.000000e+000 -1.000000e+000  0.000000e+000
    outer loop
      vertex  6.150000e+001 -1.295588e+001  2.996895e+001
      vertex  4.950000e+001 -1.295588e+001  2.996895e+001
      vertex  6.716557e+001 -1.295588e+001  2.852977e+001
    endloop
  endfacet
  facet normal  0.000000e+000 -1.000000e+000  0.000000e+000
    outer loop
      vertex  6.150000e+001 -1.295588e+001  2.996895e+001
      vertex  6.716557e+001 -1.295588e+001  2.852977e+001
      vertex  8.950000e+001 -1.295588e+001  3.048378e+001
    endloop
  endfacet
  facet normal  -0.000000e+000 -1.000000e+000  0.000000e+000
    outer loop
      vertex  6.150000e+001 -1.295588e+001  2.996895e+001
      vertex  8.950000e+001 -1.295588e+001  3.048378e+001
      vertex  8.950000e+001 -1.295588e+001  3.396896e+001
    endloop
  endfacet
  facet normal  -0.000000e+000 -1.000000e+000  0.000000e+000
    outer loop
      vertex  6.150000e+001 -1.295588e+001  2.996895e+001
      vertex  8.950000e+001 -1.295588e+001  3.396896e+001
      vertex  6.150000e+001 -1.295588e+001  3.396896e+001
    endloop
  endfacet
  facet normal  0.000000e+000 -1.000000e+000  0.000000e+000
    outer loop
      vertex  6.716557e+001 -1.295588e+001  2.852977e+001
      vertex  4.950000e+001 -1.295588e+001  2.996895e+001
      vertex  6.716557e+001 -1.295588e+001  2.451449e+001
    endloop
  endfacet
  facet normal  -0.000000e+000 -1.000000e+000  0.000000e+000
    outer loop
      vertex  6.716557e+001 -1.295588e+001  2.451449e+001
      vertex  4.950000e+001 -1.295588e+001  2.996895e+001
      vertex  4.950000e+001 -1.295588e+001  2.300000e+001
    endloop
  endfacet
  facet normal  0.000000e+000 -1.000000e+000  0.000000e+000
    outer loop
      vertex  6.716557e+001 -1.295588e+001  2.451449e+001
      vertex  4.950000e+001 -1.295588e+001  2.300000e+001
      vertex  4.950000e+001 -1.295588e+001  2.296895e+001
    endloop
  endfacet
  facet normal  1.000000e+000  0.000000e+000  0.000000e+000
    outer loop
      vertex  8.950000e+001 -1.295588e+001  3.048378e+001
      vertex  8.950000e+001  1.295588e+001  3.048378e+001
      vertex  8.950000e+001 -1.295588e+001  3.396896e+001
    endloop
  endfacet
  facet normal  1.000000e+000  -0.000000e+000  0.000000e+000
    outer loop
      vertex  8.950000e+001 -1.295588e+001  3.396896e+001
      vertex  8.950000e+001  1.295588e+001  3.048378e+001
      vertex  8.950000e+001  1.295588e+001  3.396896e+001
    endloop
  endfacet
  facet normal  -0.000000e+000  1.000000e+000  0.000000e+000
    outer loop
      vertex  6.150000e+001  1.295588e+001  2.996895e+001
      vertex  6.150000e+001  1.295588e+001  3.396896e+001
      vertex  8.950000e+001  1.295588e+001  3.396896e+001
    endloop
  endfacet
  facet normal  0.000000e+000  1.000000e+000  0.000000e+000
    outer loop
      vertex  6.150000e+001  1.295588e+001  2.996895e+001
      vertex  8.950000e+001  1.295588e+001  3.396896e+001
      vertex  8.950000e+001  1.295588e+001  3.048378e+001
    endloop
  endfacet
  facet normal  0.000000e+000  1.000000e+000  0.000000e+000
    outer loop
      vertex  6.150000e+001  1.295588e+001  2.996895e+001
      vertex  8.950000e+001  1.295588e+001  3.048378e+001
      vertex  6.716557e+001  1.295588e+001  2.852977e+001
    endloop
  endfacet
  facet normal  0.000000e+000  1.000000e+000  0.000000e+000
    outer loop
      vertex  6.150000e+001  1.295588e+001  2.996895e+001
      vertex  6.716557e+001  1.295588e+001  2.852977e+001
      vertex  4.950000e+001  1.295588e+001  2.996895e+001
    endloop
  endfacet
  facet normal  -0.000000e+000  1.000000e+000  0.000000e+000
    outer loop
      vertex  4.950000e+001  1.295588e+001  2.296895e+001
      vertex  4.950000e+001  1.295588e+001  2.298129e+001
      vertex  6.716557e+001  1.295588e+001  2.451449e+001
    endloop
  endfacet
  facet normal  0.000000e+000  9.999999e-001  0.000000e+000
    outer loop
      vertex  6.716557e+001  1.295588e+001  2.451449e+001
      vertex  4.950000e+001  1.295588e+001  2.298129e+001
      vertex  4.950000e+001  1.295588e+001  2.996895e+001
    endloop
  endfacet
  facet normal  0.000000e+000  1.000000e+000  0.000000e+000
    outer loop
      vertex  6.716557e+001  1.295588e+001  2.451449e+001
      vertex  4.950000e+001  1.295588e+001  2.996895e+001
      vertex  6.716557e+001  1.295588e+001  2.852977e+001
    endloop
  endfacet
  facet normal  0.000000e+000 -1.000000e+000  0.000000e+000
    outer loop
      vertex  6.150000e+001  4.955881e+000  2.996895e+001
      vertex  4.950000e+001  4.955881e+000  2.996895e+001
      vertex  4.950000e+001  4.955881e+000  2.300000e+001
    endloop
  endfacet
  facet normal  0.000000e+000 -1.000000e+000  0.000000e+000
    outer loop
      vertex  6.150000e+001  4.955881e+000  2.996895e+001
      vertex  4.950000e+001  4.955881e+000  2.300000e+001
      vertex  4.950000e+001  4.955881e+000  2.296895e+001
    endloop
  endfacet
  facet normal  0.000000e+000 -1.000000e+000  0.000000e+000
    outer loop
      vertex  6.150000e+001  4.955881e+000  2.996895e+001
      vertex  4.950000e+001  4.955881e+000  2.296895e+001
      vertex  6.716557e+001  4.955881e+000  2.451449e+001
    endloop
  endfacet
  facet normal  0.000000e+000 -1.000000e+000  0.000000e+000
    outer loop
      vertex  6.150000e+001  4.955881e+000  2.996895e+001
      vertex  6.716557e+001  4.955881e+000  2.451449e+001
      vertex  6.716557e+001  4.955881e+000  2.852977e+001
    endloop
  endfacet
  facet normal  0.000000e+000 -1.000000e+000  0.000000e+000
    outer loop
      vertex  6.150000e+001  4.955881e+000  2.996895e+001
      vertex  6.716557e+001  4.955881e+000  2.852977e+001
      vertex  8.361552e+001  4.955881e+000  2.996895e+001
    endloop
  endfacet
  facet normal  8.715570e-002  0.000000e+000 -9.961947e-001
    outer loop
      vertex  4.950000e+001  4.955881e+000  2.296895e+001
      vertex  4.950000e+001  1.295588e+001  2.296895e+001
      vertex  6.716557e+001  4.955881e+000  2.451449e+001
    endloop
  endfacet
  facet normal  8.715570e-002  0.000000e+000 -9.961947e-001
    outer loop
      vertex  6.716557e+001  4.955881e+000  2.451449e+001
      vertex  4.950000e+001  1.295588e+001  2.296895e+001
      vertex  6.716557e+001  1.295588e+001  2.451449e+001
    endloop
  endfacet
  facet normal  8.715570e-002  0.000000e+000 -9.961947e-001
    outer loop
      vertex  4.950000e+001 -1.295588e+001  2.296895e+001
      vertex  4.950000e+001 -4.955881e+000  2.296895e+001
      vertex  6.716557e+001 -1.295588e+001  2.451449e+001
    endloop
  endfacet
  facet normal  8.715570e-002  0.000000e+000 -9.961947e-001
    outer loop
      vertex  6.716557e+001 -1.295588e+001  2.451449e+001
      vertex  4.950000e+001 -4.955881e+000  2.296895e+001
      vertex  6.716557e+001 -4.955881e+000  2.451449e+001
    endloop
  endfacet
  facet normal  0.000000e+000  9.999999e-001  0.000000e+000
    outer loop
      vertex  6.150000e+001 -4.955881e+000  2.996895e+001
      vertex  8.361552e+001 -4.955881e+000  2.996895e+001
      vertex  6.716557e+001 -4.955881e+000  2.852977e+001
    endloop
  endfacet
  facet normal  0.000000e+000  1.000000e+000  0.000000e+000
    outer loop
      vertex  6.150000e+001 -4.955881e+000  2.996895e+001
      vertex  6.716557e+001 -4.955881e+000  2.852977e+001
      vertex  6.716557e+001 -4.955881e+000  2.451449e+001
    endloop
  endfacet
  facet normal  0.000000e+000  1.000000e+000  0.000000e+000
    outer loop
      vertex  6.150000e+001 -4.955881e+000  2.996895e+001
      vertex  6.716557e+001 -4.955881e+000  2.451449e+001
      vertex  4.950000e+001 -4.955881e+000  2.296895e+001
    endloop
  endfacet
  facet normal  0.000000e+000  1.000000e+000  0.000000e+000
    outer loop
      vertex  6.150000e+001 -4.955881e+000  2.996895e+001
      vertex  4.950000e+001 -4.955881e+000  2.296895e+001
      vertex  4.950000e+001 -4.955881e+000  2.300000e+001
    endloop
  endfacet
  facet normal  0.000000e+000  1.000000e+000  0.000000e+000
    outer loop
      vertex  6.150000e+001 -4.955881e+000  2.996895e+001
      vertex  4.950000e+001 -4.955881e+000  2.300000e+001
      vertex  4.950000e+001 -4.955881e+000  2.996895e+001
    endloop
  endfacet
  facet normal  1.000000e+000  0.000000e+000  0.000000e+000
    outer loop
      vertex  6.716557e+001  4.955881e+000  2.852977e+001
      vertex  6.716557e+001  4.955881e+000  2.451449e+001
      vertex  6.716557e+001  1.295588e+001  2.852977e+001
    endloop
  endfacet
  facet normal  1.000000e+000  0.000000e+000  0.000000e+000
    outer loop
      vertex  6.716557e+001  1.295588e+001  2.852977e+001
      vertex  6.716557e+001  4.955881e+000  2.451449e+001
      vertex  6.716557e+001  1.295588e+001  2.451449e+001
    endloop
  endfacet
  facet normal  8.715536e-002  0.000000e+000 -9.961947e-001
    outer loop
      vertex  8.361552e+001  2.189513e+000  2.996895e+001
      vertex  8.361552e+001  4.955881e+000  2.996895e+001
      vertex  8.427487e+001  0.000000e+000  3.002664e+001
    endloop
  endfacet
  facet normal  8.715577e-002  0.000000e+000 -9.961947e-001
    outer loop
      vertex  8.950000e+001  1.295588e+001  3.048378e+001
      vertex  8.950000e+001 -1.295588e+001  3.048378e+001
      vertex  8.361552e+001 -4.955881e+000  2.996895e+001
    endloop
  endfacet
  facet normal  8.715579e-002  0.000000e+000 -9.961947e-001
    outer loop
      vertex  8.950000e+001  1.295588e+001  3.048378e+001
      vertex  8.361552e+001 -4.955881e+000  2.996895e+001
      vertex  8.361552e+001 -2.189513e+000  2.996895e+001
    endloop
  endfacet
  facet normal  8.715720e-002 -5.634624e-007 -9.961946e-001
    outer loop
      vertex  8.950000e+001  1.295588e+001  3.048378e+001
      vertex  8.361552e+001 -2.189513e+000  2.996895e+001
      vertex  8.427487e+001  0.000000e+000  3.002664e+001
    endloop
  endfacet
  facet normal  8.715571e-002  4.655375e-008 -9.961947e-001
    outer loop
      vertex  8.950000e+001  1.295588e+001  3.048378e+001
      vertex  8.427487e+001  0.000000e+000  3.002664e+001
      vertex  8.361552e+001  4.955881e+000  2.996895e+001
    endloop
  endfacet
  facet normal  8.715574e-002  3.609605e-008 -9.961948e-001
    outer loop
      vertex  8.950000e+001  1.295588e+001  3.048378e+001
      vertex  8.361552e+001  4.955881e+000  2.996895e+001
      vertex  6.716557e+001  4.955881e+000  2.852977e+001
    endloop
  endfacet
  facet normal  8.715575e-002  0.000000e+000 -9.961947e-001
    outer loop
      vertex  8.950000e+001  1.295588e+001  3.048378e+001
      vertex  6.716557e+001  4.955881e+000  2.852977e+001
      vertex  6.716557e+001  1.295588e+001  2.852977e+001
    endloop
  endfacet
  facet normal  8.715575e-002  0.000000e+000 -9.961947e-001
    outer loop
      vertex  6.716557e+001 -1.295588e+001  2.852977e+001
      vertex  6.716557e+001 -4.955881e+000  2.852977e+001
      vertex  8.950000e+001 -1.295588e+001  3.048378e+001
    endloop
  endfacet
  facet normal  8.715574e-002 -2.887684e-008 -9.961948e-001
    outer loop
      vertex  8.950000e+001 -1.295588e+001  3.048378e+001
      vertex  6.716557e+001 -4.955881e+000  2.852977e+001
      vertex  8.361552e+001 -4.955881e+000  2.996895e+001
    endloop
  endfacet
  facet normal  -0.000000e+000  0.000000e+000  1.000000e+000
    outer loop
      vertex  8.950000e+001  1.295588e+001  3.396896e+001
      vertex  8.153513e+001  3.770939e+000  3.396896e+001
      vertex  8.351762e+001  2.330569e+000  3.396896e+001
    endloop
  endfacet
  facet normal  0.000000e+000  0.000000e+000  1.000000e+000
    outer loop
      vertex  6.150000e+001  1.295588e+001  3.396896e+001
      vertex  6.150000e+001 -1.295588e+001  3.396896e+001
      vertex  7.710212e+001  2.330569e+000  3.396896e+001
    endloop
  endfacet
  facet normal  0.000000e+000  -0.000000e+000  1.000000e+000
    outer loop
      vertex  6.150000e+001  1.295588e+001  3.396896e+001
      vertex  7.710212e+001  2.330569e+000  3.396896e+001
      vertex  7.908462e+001  3.770939e+000  3.396896e+001
    endloop
  endfacet
  facet normal  0.000000e+000  -0.000000e+000  1.000000e+000
    outer loop
      vertex  6.150000e+001  1.295588e+001  3.396896e+001
      vertex  7.908462e+001  3.770939e+000  3.396896e+001
      vertex  8.153513e+001  3.770939e+000  3.396896e+001
    endloop
  endfacet
  facet normal  0.000000e+000  -0.000000e+000  1.000000e+000
    outer loop
      vertex  6.150000e+001  1.295588e+001  3.396896e+001
      vertex  8.153513e+001  3.770939e+000  3.396896e+001
      vertex  8.950000e+001  1.295588e+001  3.396896e+001
    endloop
  endfacet
  facet normal  0.000000e+000  0.000000e+000  1.000000e+000
    outer loop
      vertex  6.150000e+001 -1.295588e+001  3.396896e+001
      vertex  8.950000e+001 -1.295588e+001  3.396896e+001
      vertex  8.153513e+001 -3.770939e+000  3.396896e+001
    endloop
  endfacet
  facet normal  0.000000e+000  0.000000e+000  1.000000e+000
    outer loop
      vertex  6.150000e+001 -1.295588e+001  3.396896e+001
      vertex  8.153513e+001 -3.770939e+000  3.396896e+001
      vertex  7.908462e+001 -3.770939e+000  3.396896e+001
    endloop
  endfacet
  facet normal  0.000000e+000  0.000000e+000  1.000000e+000
    outer loop
      vertex  6.150000e+001 -1.295588e+001  3.396896e+001
      vertex  7.908462e+001 -3.770939e+000  3.396896e+001
      vertex  7.710212e+001 -2.330569e+000  3.396896e+001
    endloop
  endfacet
  facet normal  0.000000e+000  0.000000e+000  1.000000e+000
    outer loop
      vertex  6.150000e+001 -1.295588e+001  3.396896e+001
      vertex  7.710212e+001 -2.330569e+000  3.396896e+001
      vertex  7.634487e+001 -4.855724e-016  3.396896e+001
    endloop
  endfacet
  facet normal  0.000000e+000  -0.000000e+000  1.000000e+000
    outer loop
      vertex  6.150000e+001 -1.295588e+001  3.396896e+001
      vertex  7.634487e+001 -4.855724e-016  3.396896e+001
      vertex  7.710212e+001  2.330569e+000  3.396896e+001
    endloop
  endfacet
  facet normal  0.000000e+000  0.000000e+000  1.000000e+000
    outer loop
      vertex  8.950000e+001 -1.295588e+001  3.396896e+001
      vertex  8.950000e+001  1.295588e+001  3.396896e+001
      vertex  8.351762e+001  2.330569e+000  3.396896e+001
    endloop
  endfacet
  facet normal  0.000000e+000  0.000000e+000  1.000000e+000
    outer loop
      vertex  8.950000e+001 -1.295588e+001  3.396896e+001
      vertex  8.351762e+001  2.330569e+000  3.396896e+001
      vertex  8.427487e+001  0.000000e+000  3.396896e+001
    endloop
  endfacet
  facet normal  0.000000e+000  0.000000e+000  1.000000e+000
    outer loop
      vertex  8.950000e+001 -1.295588e+001  3.396896e+001
      vertex  8.427487e+001  0.000000e+000  3.396896e+001
      vertex  8.351762e+001 -2.330569e+000  3.396896e+001
    endloop
  endfacet
  facet normal  0.000000e+000  0.000000e+000  1.000000e+000
    outer loop
      vertex  8.950000e+001 -1.295588e+001  3.396896e+001
      vertex  8.351762e+001 -2.330569e+000  3.396896e+001
      vertex  8.153513e+001 -3.770939e+000  3.396896e+001
    endloop
  endfacet
  facet normal -1.000000e+000  0.000000e+000  0.000000e+000
    outer loop
      vertex  6.150000e+001  1.295588e+001  3.396896e+001
      vertex  6.150000e+001  1.295588e+001  2.996895e+001
      vertex  6.150000e+001  4.955881e+000  2.996895e+001
    endloop
  endfacet
  facet normal -1.000000e+000  0.000000e+000  0.000000e+000
    outer loop
      vertex  6.150000e+001  1.295588e+001  3.396896e+001
      vertex  6.150000e+001  4.955881e+000  2.996895e+001
      vertex  6.150000e+001 -4.955881e+000  2.996895e+001
    endloop
  endfacet
  facet normal -1.000000e+000  0.000000e+000  0.000000e+000
    outer loop
      vertex  6.150000e+001  1.295588e+001  3.396896e+001
      vertex  6.150000e+001 -4.955881e+000  2.996895e+001
      vertex  6.150000e+001 -1.295588e+001  2.996895e+001
    endloop
  endfacet
  facet normal -1.000000e+000  0.000000e+000  0.000000e+000
    outer loop
      vertex  6.150000e+001  1.295588e+001  3.396896e+001
      vertex  6.150000e+001 -1.295588e+001  2.996895e+001
      vertex  6.150000e+001 -1.295588e+001  3.396896e+001
    endloop
  endfacet
  facet normal  0.000000e+000  0.000000e+000  1.000000e+000
    outer loop
      vertex  4.950000e+001 -1.295588e+001  2.996895e+001
      vertex  6.150000e+001 -1.295588e+001  2.996895e+001
      vertex  4.950000e+001 -4.955881e+000  2.996895e+001
    endloop
  endfacet
  facet normal  -0.000000e+000  0.000000e+000  1.000000e+000
    outer loop
      vertex  4.950000e+001 -4.955881e+000  2.996895e+001
      vertex  6.150000e+001 -1.295588e+001  2.996895e+001
      vertex  6.150000e+001 -4.955881e+000  2.996895e+001
    endloop
  endfacet
  facet normal  0.000000e+000  0.000000e+000  1.000000e+000
    outer loop
      vertex  4.950000e+001  4.955881e+000  2.996895e+001
      vertex  6.150000e+001  4.955881e+000  2.996895e+001
      vertex  4.950000e+001  1.295588e+001  2.996895e+001
    endloop
  endfacet
  facet normal  -0.000000e+000  0.000000e+000  1.000000e+000
    outer loop
      vertex  4.950000e+001  1.295588e+001  2.996895e+001
      vertex  6.150000e+001  4.955881e+000  2.996895e+001
      vertex  6.150000e+001  1.295588e+001  2.996895e+001
    endloop
  endfacet
  facet normal -1.000000e+000  0.000000e+000  0.000000e+000
    outer loop
      vertex  4.950000e+001  5.000000e+000  2.300000e+001
      vertex  4.950000e+001  5.000000e+000  2.298129e+001
      vertex  4.950000e+001  4.955881e+000  2.300000e+001
    endloop
  endfacet
  facet normal -1.000000e+000  0.000000e+000  0.000000e+000
    outer loop
      vertex  4.950000e+001  4.955881e+000  2.300000e+001
      vertex  4.950000e+001  5.000000e+000  2.298129e+001
      vertex  4.950000e+001  4.955881e+000  2.296895e+001
    endloop
  endfacet
  facet normal -1.000000e+000  -0.000000e+000  0.000000e+000
    outer loop
      vertex  4.950000e+001  5.000000e+000  2.298129e+001
      vertex  4.950000e+001  1.295588e+001  2.298129e+001
      vertex  4.950000e+001  4.955881e+000  2.296895e+001
    endloop
  endfacet
  facet normal -9.999999e-001  0.000000e+000  0.000000e+000
    outer loop
      vertex  4.950000e+001  4.955881e+000  2.296895e+001
      vertex  4.950000e+001  1.295588e+001  2.298129e+001
      vertex  4.950000e+001  1.295588e+001  2.296895e+001
    endloop
  endfacet
  facet normal -1.000000e+000  0.000000e+000  0.000000e+000
    outer loop
      vertex  4.950000e+001 -1.295588e+001  2.296895e+001
      vertex  4.950000e+001 -1.295588e+001  2.300000e+001
      vertex  4.950000e+001 -4.955881e+000  2.296895e+001
    endloop
  endfacet
  facet normal -1.000000e+000  0.000000e+000  0.000000e+000
    outer loop
      vertex  4.950000e+001 -4.955881e+000  2.296895e+001
      vertex  4.950000e+001 -1.295588e+001  2.300000e+001
      vertex  4.950000e+001 -4.955881e+000  2.300000e+001
    endloop
  endfacet
  facet normal  1.000000e+000  0.000000e+000  0.000000e+000
    outer loop
      vertex  4.950000e+001 -1.300000e+001  3.000000e+001
      vertex  4.950000e+001 -1.300000e+001  2.300000e+001
      vertex  4.950000e+001 -1.295588e+001  2.300000e+001
    endloop
  endfacet
  facet normal  1.000000e+000  0.000000e+000  -0.000000e+000
    outer loop
      vertex  4.950000e+001 -1.300000e+001  3.000000e+001
      vertex  4.950000e+001 -1.295588e+001  2.300000e+001
      vertex  4.950000e+001 -1.295588e+001  2.996895e+001
    endloop
  endfacet
  facet normal  1.000000e+000  0.000000e+000  -0.000000e+000
    outer loop
      vertex  4.950000e+001 -1.300000e+001  3.000000e+001
      vertex  4.950000e+001 -1.295588e+001  2.996895e+001
      vertex  4.950000e+001 -4.955881e+000  2.996895e+001
    endloop
  endfacet
  facet normal  9.999999e-001  0.000000e+000  -0.000000e+000
    outer loop
      vertex  4.950000e+001 -1.300000e+001  3.000000e+001
      vertex  4.950000e+001 -4.955881e+000  2.996895e+001
      vertex  4.950000e+001  1.300000e+001  3.000000e+001
    endloop
  endfacet
  facet normal  1.000000e+000  0.000000e+000  -0.000000e+000
    outer loop
      vertex  4.950000e+001  4.955881e+000  2.996895e+001
      vertex  4.950000e+001  1.295588e+001  2.996895e+001
      vertex  4.950000e+001  1.300000e+001  3.000000e+001
    endloop
  endfacet
  facet normal  1.000000e+000  0.000000e+000  0.000000e+000
    outer loop
      vertex  4.950000e+001  4.955881e+000  2.996895e+001
      vertex  4.950000e+001  1.300000e+001  3.000000e+001
      vertex  4.950000e+001 -4.955881e+000  2.996895e+001
    endloop
  endfacet
  facet normal  1.000000e+000  -0.000000e+000  0.000000e+000
    outer loop
      vertex  4.950000e+001  4.955881e+000  2.996895e+001
      vertex  4.950000e+001 -4.955881e+000  2.996895e+001
      vertex  4.950000e+001 -4.955881e+000  2.300000e+001
    endloop
  endfacet
  facet normal  1.000000e+000  0.000000e+000  0.000000e+000
    outer loop
      vertex  4.950000e+001  4.955881e+000  2.996895e+001
      vertex  4.950000e+001 -4.955881e+000  2.300000e+001
      vertex  4.950000e+001  4.955881e+000  2.300000e+001
    endloop
  endfacet
  facet normal  1.000000e+000  0.000000e+000  0.000000e+000
    outer loop
      vertex  4.950000e+001  1.295588e+001  2.996895e+001
      vertex  4.950000e+001  1.295588e+001  2.298129e+001
      vertex  4.950000e+001  1.300000e+001  3.000000e+001
    endloop
  endfacet
  facet normal  9.999999e-001  0.000000e+000  0.000000e+000
    outer loop
      vertex  4.950000e+001  1.300000e+001  3.000000e+001
      vertex  4.950000e+001  1.295588e+001  2.298129e+001
      vertex  4.950000e+001  1.300000e+001  2.298129e+001
    endloop
  endfacet
  facet normal  0.000000e+000  0.000000e+000 -1.000000e+000
    outer loop
      vertex  4.950000e+001  5.000000e+000  2.300000e+001
      vertex  4.950000e+001  4.955881e+000  2.300000e+001
      vertex  4.450000e+001  5.000000e+000  2.300000e+001
    endloop
  endfacet
  facet normal  0.000000e+000  0.000000e+000 -1.000000e+000
    outer loop
      vertex  4.950000e+001 -4.955881e+000  2.300000e+001
      vertex  4.950000e+001 -1.295588e+001  2.300000e+001
      vertex  4.452615e+001 -5.000000e+000  2.300000e+001
    endloop
  endfacet
  facet normal  0.000000e+000  0.000000e+000 -1.000000e+000
    outer loop
      vertex  4.950000e+001 -4.955881e+000  2.300000e+001
      vertex  4.452615e+001 -5.000000e+000  2.300000e+001
      vertex  4.450000e+001 -5.000000e+000  2.300000e+001
    endloop
  endfacet
  facet normal  0.000000e+000  0.000000e+000 -1.000000e+000
    outer loop
      vertex  4.950000e+001 -4.955881e+000  2.300000e+001
      vertex  4.450000e+001 -5.000000e+000  2.300000e+001
      vertex  4.450000e+001  5.000000e+000  2.300000e+001
    endloop
  endfacet
  facet normal  0.000000e+000  0.000000e+000 -1.000000e+000
    outer loop
      vertex  4.950000e+001 -4.955881e+000  2.300000e+001
      vertex  4.450000e+001  5.000000e+000  2.300000e+001
      vertex  4.950000e+001  4.955881e+000  2.300000e+001
    endloop
  endfacet
  facet normal  0.000000e+000  0.000000e+000 -9.999999e-001
    outer loop
      vertex  4.950000e+001 -1.295588e+001  2.300000e+001
      vertex  4.950000e+001 -1.300000e+001  2.300000e+001
      vertex  4.452615e+001 -5.000000e+000  2.300000e+001
    endloop
  endfacet
  facet normal  0.000000e+000  0.000000e+000 -1.000000e+000
    outer loop
      vertex  4.452615e+001 -5.000000e+000  2.300000e+001
      vertex  4.950000e+001 -1.300000e+001  2.300000e+001
      vertex  4.452615e+001 -1.300000e+001  2.300000e+001
    endloop
  endfacet
  facet normal  0.000000e+000  0.000000e+000 -9.999999e-001
    outer loop
      vertex  4.950000e+001  5.000000e+000  2.298129e+001
      vertex  4.445987e+001  5.000000e+000  2.298129e+001
      vertex  4.950000e+001  1.295588e+001  2.298129e+001
    endloop
  endfacet
  facet normal  -0.000000e+000  0.000000e+000 -1.000000e+000
    outer loop
      vertex  4.950000e+001  1.295588e+001  2.298129e+001
      vertex  4.445987e+001  5.000000e+000  2.298129e+001
      vertex  4.445987e+001  1.300000e+001  2.298129e+001
    endloop
  endfacet
  facet normal  0.000000e+000  0.000000e+000 -1.000000e+000
    outer loop
      vertex  4.950000e+001  1.295588e+001  2.298129e+001
      vertex  4.445987e+001  1.300000e+001  2.298129e+001
      vertex  4.950000e+001  1.300000e+001  2.298129e+001
    endloop
  endfacet
  facet normal  0.000000e+000 -1.000000e+000  0.000000e+000
    outer loop
      vertex  4.445987e+001  5.000000e+000  2.298129e+001
      vertex  4.950000e+001  5.000000e+000  2.298129e+001
      vertex  4.450000e+001  5.000000e+000  2.300000e+001
    endloop
  endfacet
  facet normal  0.000000e+000 -1.000000e+000  0.000000e+000
    outer loop
      vertex  4.450000e+001  5.000000e+000  2.300000e+001
      vertex  4.950000e+001  5.000000e+000  2.298129e+001
      vertex  4.950000e+001  5.000000e+000  2.300000e+001
    endloop
  endfacet
  facet normal  0.000000e+000  1.000000e+000  0.000000e+000
    outer loop
      vertex  4.950000e+001  1.300000e+001  2.298129e+001
      vertex  4.445987e+001  1.300000e+001  2.298129e+001
      vertex  4.950000e+001  1.300000e+001  3.000000e+001
    endloop
  endfacet
  facet normal  0.000000e+000  1.000000e+000  0.000000e+000
    outer loop
      vertex  4.950000e+001  1.300000e+001  3.000000e+001
      vertex  4.445987e+001  1.300000e+001  2.298129e+001
      vertex  4.445987e+001  1.300000e+001  3.000000e+001
    endloop
  endfacet
  facet normal  0.000000e+000 -1.000000e+000  0.000000e+000
    outer loop
      vertex  4.452615e+001 -1.300000e+001  2.300000e+001
      vertex  4.950000e+001 -1.300000e+001  2.300000e+001
      vertex  4.452615e+001 -1.300000e+001  3.000000e+001
    endloop
  endfacet
  facet normal  0.000000e+000 -1.000000e+000  0.000000e+000
    outer loop
      vertex  4.452615e+001 -1.300000e+001  3.000000e+001
      vertex  4.950000e+001 -1.300000e+001  2.300000e+001
      vertex  4.950000e+001 -1.300000e+001  3.000000e+001
    endloop
  endfacet
  facet normal  0.000000e+000  0.000000e+000  1.000000e+000
    outer loop
      vertex  4.452615e+001 -5.000000e+000  3.000000e+001
      vertex  4.452615e+001 -1.300000e+001  3.000000e+001
      vertex  4.950000e+001 -1.300000e+001  3.000000e+001
    endloop
  endfacet
  facet normal  0.000000e+000  -0.000000e+000  1.000000e+000
    outer loop
      vertex  4.452615e+001 -5.000000e+000  3.000000e+001
      vertex  4.950000e+001 -1.300000e+001  3.000000e+001
      vertex  4.950000e+001  1.300000e+001  3.000000e+001
    endloop
  endfacet
  facet normal  0.000000e+000  0.000000e+000  1.000000e+000
    outer loop
      vertex  4.452615e+001 -5.000000e+000  3.000000e+001
      vertex  4.950000e+001  1.300000e+001  3.000000e+001
      vertex  4.445987e+001  1.300000e+001  3.000000e+001
    endloop
  endfacet
  facet normal  0.000000e+000  0.000000e+000  1.000000e+000
    outer loop
      vertex  4.452615e+001 -5.000000e+000  3.000000e+001
      vertex  4.445987e+001  1.300000e+001  3.000000e+001
      vertex  4.445987e+001  5.000000e+000  3.000000e+001
    endloop
  endfacet
  facet normal  0.000000e+000  0.000000e+000  1.000000e+000
    outer loop
      vertex  4.452615e+001 -5.000000e+000  3.000000e+001
      vertex  4.445987e+001  5.000000e+000  3.000000e+001
      vertex  2.500000e+000  5.000000e+000  3.000000e+001
    endloop
  endfacet
  facet normal  0.000000e+000  0.000000e+000  1.000000e+000
    outer loop
      vertex  4.452615e+001 -5.000000e+000  3.000000e+001
      vertex  2.500000e+000  5.000000e+000  3.000000e+001
      vertex  2.500000e+000 -5.000000e+000  3.000000e+001
    endloop
  endfacet
  facet normal -1.000000e+000  0.000000e+000  0.000000e+000
    outer loop
      vertex  4.452615e+001 -5.000000e+000  2.300000e+001
      vertex  4.452615e+001 -1.300000e+001  2.300000e+001
      vertex  4.452615e+001 -5.000000e+000  3.000000e+001
    endloop
  endfacet
  facet normal -1.000000e+000  -0.000000e+000  0.000000e+000
    outer loop
      vertex  4.452615e+001 -5.000000e+000  3.000000e+001
      vertex  4.452615e+001 -1.300000e+001  2.300000e+001
      vertex  4.452615e+001 -1.300000e+001  3.000000e+001
    endloop
  endfacet
  facet normal  0.000000e+000 -1.000000e+000  0.000000e+000
    outer loop
      vertex  4.450000e+001 -5.000000e+000  2.300000e+001
      vertex  4.452615e+001 -5.000000e+000  2.300000e+001
      vertex  4.452615e+001 -5.000000e+000  3.000000e+001
    endloop
  endfacet
  facet normal  0.000000e+000 -1.000000e+000  0.000000e+000
    outer loop
      vertex  2.500000e+000 -5.000000e+000  3.000000e+001
      vertex  2.500000e+000 -5.000000e+000  5.000000e+000
      vertex  4.452615e+001 -5.000000e+000  3.000000e+001
    endloop
  endfacet
  facet normal  0.000000e+000 -1.000000e+000  0.000000e+000
    outer loop
      vertex  4.452615e+001 -5.000000e+000  3.000000e+001
      vertex  2.500000e+000 -5.000000e+000  5.000000e+000
      vertex  5.898875e+000 -5.000000e+000  5.000000e+000
    endloop
  endfacet
  facet normal  0.000000e+000 -1.000000e+000  0.000000e+000
    outer loop
      vertex  4.452615e+001 -5.000000e+000  3.000000e+001
      vertex  5.898875e+000 -5.000000e+000  5.000000e+000
      vertex  4.450000e+001 -5.000000e+000  2.300000e+001
    endloop
  endfacet
  facet normal -1.000000e+000  0.000000e+000  0.000000e+000
    outer loop
      vertex  4.445987e+001  5.000000e+000  2.298129e+001
      vertex  4.445987e+001  5.000000e+000  3.000000e+001
      vertex  4.445987e+001  1.300000e+001  2.298129e+001
    endloop
  endfacet
  facet normal -1.000000e+000  0.000000e+000  0.000000e+000
    outer loop
      vertex  4.445987e+001  1.300000e+001  2.298129e+001
      vertex  4.445987e+001  5.000000e+000  3.000000e+001
      vertex  4.445987e+001  1.300000e+001  3.000000e+001
    endloop
  endfacet
  facet normal  0.000000e+000  9.999999e-001  0.000000e+000
    outer loop
      vertex  2.500000e+000  5.000000e+000  5.000000e+000
      vertex  2.500000e+000  5.000000e+000  3.000000e+001
      vertex  5.898875e+000  5.000000e+000  5.000000e+000
    endloop
  endfacet
  facet normal  0.000000e+000  1.000000e+000  -0.000000e+000
    outer loop
      vertex  5.898875e+000  5.000000e+000  5.000000e+000
      vertex  2.500000e+000  5.000000e+000  3.000000e+001
      vertex  4.445987e+001  5.000000e+000  3.000000e+001
    endloop
  endfacet
  facet normal  0.000000e+000  1.000000e+000  0.000000e+000
    outer loop
      vertex  5.898875e+000  5.000000e+000  5.000000e+000
      vertex  4.445987e+001  5.000000e+000  3.000000e+001
      vertex  4.445987e+001  5.000000e+000  2.298129e+001
    endloop
  endfacet
  facet normal  4.226183e-001  0.000000e+000 -9.063078e-001
    outer loop
      vertex  5.898875e+000 -5.000000e+000  5.000000e+000
      vertex  5.898875e+000  5.000000e+000  5.000000e+000
      vertex  4.450000e+001 -5.000000e+000  2.300000e+001
    endloop
  endfacet
  facet normal  4.226183e-001  3.124010e-008 -9.063078e-001
    outer loop
      vertex  4.450000e+001 -5.000000e+000  2.300000e+001
      vertex  5.898875e+000  5.000000e+000  5.000000e+000
      vertex  4.445987e+001  5.000000e+000  2.298129e+001
    endloop
  endfacet
  facet normal  4.226118e-001  0.000000e+000 -9.063107e-001
    outer loop
      vertex  4.450000e+001 -5.000000e+000  2.300000e+001
      vertex  4.445987e+001  5.000000e+000  2.298129e+001
      vertex  4.450000e+001  5.000000e+000  2.300000e+001
    endloop
  endfacet
  facet normal  1.000000e+000  0.000000e+000  -0.000000e+000
    outer loop
      vertex  2.500000e+000  5.000000e+000  5.000000e+000
      vertex  2.500000e+000  1.101789e+001  3.707107e+000
      vertex  2.500000e+000  1.172500e+001  4.000000e+000
    endloop
  endfacet
  facet normal  1.000000e+000  0.000000e+000  -0.000000e+000
    outer loop
      vertex  2.500000e+000  5.000000e+000  5.000000e+000
      vertex  2.500000e+000  1.072500e+001  3.000000e+000
      vertex  2.500000e+000  1.101789e+001  3.707107e+000
    endloop
  endfacet
  facet normal  1.000000e+000  0.000000e+000  -0.000000e+000
    outer loop
      vertex  2.500000e+000 -1.243211e+001  3.707107e+000
      vertex  2.500000e+000 -1.172500e+001  4.000000e+000
      vertex  2.500000e+000 -1.172500e+001  2.900000e+001
    endloop
  endfacet
  facet normal  1.000000e+000  0.000000e+000  0.000000e+000
    outer loop
      vertex  2.500000e+000  1.243211e+001  3.707107e+000
      vertex  2.500000e+000  1.172500e+001  2.900000e+001
      vertex  2.500000e+000  1.172500e+001  4.000000e+000
    endloop
  endfacet
  facet normal  1.000000e+000  -0.000000e+000  0.000000e+000
    outer loop
      vertex  2.500000e+000  5.000000e+000  3.000000e+001
      vertex  2.500000e+000  5.000000e+000  5.000000e+000
      vertex  2.500000e+000  1.172500e+001  4.000000e+000
    endloop
  endfacet
  facet normal  1.000000e+000  0.000000e+000  -0.000000e+000
    outer loop
      vertex  2.500000e+000  5.000000e+000  3.000000e+001
      vertex  2.500000e+000  1.172500e+001  4.000000e+000
      vertex  2.500000e+000  1.172500e+001  2.900000e+001
    endloop
  endfacet
  facet normal  1.000000e+000  0.000000e+000  0.000000e+000
    outer loop
      vertex  2.500000e+000  5.000000e+000  3.000000e+001
      vertex  2.500000e+000  1.172500e+001  2.900000e+001
      vertex  2.500000e+000  1.101789e+001  2.929289e+001
    endloop
  endfacet
  facet normal  1.000000e+000  0.000000e+000  0.000000e+000
    outer loop
      vertex  2.500000e+000  5.000000e+000  3.000000e+001
      vertex  2.500000e+000  1.101789e+001  2.929289e+001
      vertex  2.500000e+000  1.072500e+001  3.000000e+001
    endloop
  endfacet
  facet normal  1.000000e+000  0.000000e+000  -0.000000e+000
    outer loop
      vertex  2.500000e+000  5.000000e+000  3.000000e+001
      vertex  2.500000e+000  1.072500e+001  3.000000e+001
      vertex  2.500000e+000  1.101789e+001  3.070711e+001
    endloop
  endfacet
  facet normal  1.000000e+000  0.000000e+000  0.000000e+000
    outer loop
      vertex  2.500000e+000 -5.000000e+000  3.000000e+001
      vertex  2.500000e+000 -1.101789e+001  3.070711e+001
      vertex  2.500000e+000 -1.072500e+001  3.000000e+001
    endloop
  endfacet
  facet normal  1.000000e+000  -0.000000e+000  0.000000e+000
    outer loop
      vertex  2.500000e+000 -5.000000e+000  3.000000e+001
      vertex  2.500000e+000 -1.072500e+001  3.000000e+001
      vertex  2.500000e+000 -1.101789e+001  2.929289e+001
    endloop
  endfacet
  facet normal  1.000000e+000  -0.000000e+000  0.000000e+000
    outer loop
      vertex  2.500000e+000 -5.000000e+000  3.000000e+001
      vertex  2.500000e+000 -1.101789e+001  2.929289e+001
      vertex  2.500000e+000 -1.172500e+001  2.900000e+001
    endloop
  endfacet
  facet normal  1.000000e+000  -0.000000e+000  0.000000e+000
    outer loop
      vertex  2.500000e+000 -5.000000e+000  3.000000e+001
      vertex  2.500000e+000 -1.172500e+001  2.900000e+001
      vertex  2.500000e+000 -1.172500e+001  4.000000e+000
    endloop
  endfacet
  facet normal  1.000000e+000  0.000000e+000  0.000000e+000
    outer loop
      vertex  2.500000e+000 -5.000000e+000  3.000000e+001
      vertex  2.500000e+000 -1.172500e+001  4.000000e+000
      vertex  2.500000e+000 -5.000000e+000  5.000000e+000
    endloop
  endfacet
  facet normal  1.000000e+000  -0.000000e+000  0.000000e+000
    outer loop
      vertex  2.500000e+000 -5.000000e+000  5.000000e+000
      vertex  2.500000e+000 -1.172500e+001  4.000000e+000
      vertex  2.500000e+000 -1.101789e+001  3.707107e+000
    endloop
  endfacet
  facet normal  1.000000e+000  -0.000000e+000  0.000000e+000
    outer loop
      vertex  2.500000e+000 -5.000000e+000  5.000000e+000
      vertex  2.500000e+000 -1.101789e+001  3.707107e+000
      vertex  2.500000e+000 -1.072500e+001  3.000000e+000
    endloop
  endfacet
  facet normal  9.999999e-001  -0.000000e+000  0.000000e+000
    outer loop
      vertex  2.500000e+000 -5.000000e+000  5.000000e+000
      vertex  2.500000e+000 -1.072500e+001  3.000000e+000
      vertex  2.500000e+000 -1.101789e+001  2.292893e+000
    endloop
  endfacet
  facet normal  1.000000e+000  0.000000e+000  0.000000e+000
    outer loop
      vertex  2.500000e+000 -1.472500e+001  3.552714e-015
      vertex  2.500000e+000  1.472500e+001  3.552714e-015
      vertex  2.500000e+000  1.172500e+001  2.000000e+000
    endloop
  endfacet
  facet normal  1.000000e+000  0.000000e+000  0.000000e+000
    outer loop
      vertex  2.500000e+000 -1.472500e+001  3.552714e-015
      vertex  2.500000e+000  1.172500e+001  2.000000e+000
      vertex  2.500000e+000  1.101789e+001  2.292893e+000
    endloop
  endfacet
  facet normal  1.000000e+000  0.000000e+000  0.000000e+000
    outer loop
      vertex  2.500000e+000 -1.472500e+001  3.552714e-015
      vertex  2.500000e+000  1.101789e+001  2.292893e+000
      vertex  2.500000e+000  1.072500e+001  3.000000e+000
    endloop
  endfacet
  facet normal  1.000000e+000  0.000000e+000  0.000000e+000
    outer loop
      vertex  2.500000e+000 -1.472500e+001  3.552714e-015
      vertex  2.500000e+000  1.072500e+001  3.000000e+000
      vertex  2.500000e+000  5.000000e+000  5.000000e+000
    endloop
  endfacet
  facet normal  1.000000e+000  0.000000e+000  0.000000e+000
    outer loop
      vertex  2.500000e+000 -1.472500e+001  3.552714e-015
      vertex  2.500000e+000  5.000000e+000  5.000000e+000
      vertex  2.500000e+000 -5.000000e+000  5.000000e+000
    endloop
  endfacet
  facet normal  9.999999e-001  0.000000e+000  0.000000e+000
    outer loop
      vertex  2.500000e+000 -1.472500e+001  3.552714e-015
      vertex  2.500000e+000 -5.000000e+000  5.000000e+000
      vertex  2.500000e+000 -1.101789e+001  2.292893e+000
    endloop
  endfacet
  facet normal  1.000000e+000  0.000000e+000  0.000000e+000
    outer loop
      vertex  2.500000e+000 -1.472500e+001  3.552714e-015
      vertex  2.500000e+000 -1.101789e+001  2.292893e+000
      vertex  2.500000e+000 -1.172500e+001  2.000000e+000
    endloop
  endfacet
  facet normal  1.000000e+000  0.000000e+000  0.000000e+000
    outer loop
      vertex  2.500000e+000 -1.472500e+001  3.552714e-015
      vertex  2.500000e+000 -1.172500e+001  2.000000e+000
      vertex  2.500000e+000 -1.243211e+001  2.292893e+000
    endloop
  endfacet
  facet normal  1.000000e+000  0.000000e+000  0.000000e+000
    outer loop
      vertex  2.500000e+000 -1.472500e+001  3.552714e-015
      vertex  2.500000e+000 -1.243211e+001  2.292893e+000
      vertex  2.500000e+000 -1.272500e+001  3.000000e+000
    endloop
  endfacet
  facet normal  1.000000e+000  0.000000e+000  -0.000000e+000
    outer loop
      vertex  2.500000e+000 -1.472500e+001  3.552714e-015
      vertex  2.500000e+000 -1.272500e+001  3.000000e+000
      vertex  2.500000e+000 -1.243211e+001  3.707107e+000
    endloop
  endfacet
  facet normal  1.000000e+000  0.000000e+000  -0.000000e+000
    outer loop
      vertex  2.500000e+000 -1.472500e+001  3.552714e-015
      vertex  2.500000e+000 -1.243211e+001  3.707107e+000
      vertex  2.500000e+000 -1.172500e+001  2.900000e+001
    endloop
  endfacet
  facet normal  1.000000e+000  0.000000e+000  0.000000e+000
    outer loop
      vertex  2.500000e+000 -1.472500e+001  3.552714e-015
      vertex  2.500000e+000 -1.172500e+001  2.900000e+001
      vertex  2.500000e+000 -1.243211e+001  2.929289e+001
    endloop
  endfacet
  facet normal  9.999999e-001  0.000000e+000  0.000000e+000
    outer loop
      vertex  2.500000e+000 -1.472500e+001  3.552714e-015
      vertex  2.500000e+000 -1.243211e+001  2.929289e+001
      vertex  2.500000e+000 -1.272500e+001  3.000000e+001
    endloop
  endfacet
  facet normal  1.000000e+000  0.000000e+000  0.000000e+000
    outer loop
      vertex  2.500000e+000 -1.472500e+001  3.552714e-015
      vertex  2.500000e+000 -1.272500e+001  3.000000e+001
      vertex  2.500000e+000 -1.472500e+001  3.300000e+001
    endloop
  endfacet
  facet normal  1.000000e+000  0.000000e+000  -0.000000e+000
    outer loop
      vertex  2.500000e+000 -1.472500e+001  3.300000e+001
      vertex  2.500000e+000 -1.272500e+001  3.000000e+001
      vertex  2.500000e+000 -1.243211e+001  3.070711e+001
    endloop
  endfacet
  facet normal  1.000000e+000  0.000000e+000  -0.000000e+000
    outer loop
      vertex  2.500000e+000 -1.472500e+001  3.300000e+001
      vertex  2.500000e+000 -1.243211e+001  3.070711e+001
      vertex  2.500000e+000 -1.172500e+001  3.100000e+001
    endloop
  endfacet
  facet normal  1.000000e+000  -0.000000e+000  -0.000000e+000
    outer loop
      vertex  2.500000e+000 -1.472500e+001  3.300000e+001
      vertex  2.500000e+000 -1.172500e+001  3.100000e+001
      vertex  2.500000e+000 -1.101789e+001  3.070711e+001
    endloop
  endfacet
  facet normal  1.000000e+000  -0.000000e+000  -0.000000e+000
    outer loop
      vertex  2.500000e+000 -1.472500e+001  3.300000e+001
      vertex  2.500000e+000 -1.101789e+001  3.070711e+001
      vertex  2.500000e+000 -5.000000e+000  3.000000e+001
    endloop
  endfacet
  facet normal  1.000000e+000  0.000000e+000  -0.000000e+000
    outer loop
      vertex  2.500000e+000 -1.472500e+001  3.300000e+001
      vertex  2.500000e+000 -5.000000e+000  3.000000e+001
      vertex  2.500000e+000  5.000000e+000  3.000000e+001
    endloop
  endfacet
  facet normal  1.000000e+000  0.000000e+000  -0.000000e+000
    outer loop
      vertex  2.500000e+000 -1.472500e+001  3.300000e+001
      vertex  2.500000e+000  5.000000e+000  3.000000e+001
      vertex  2.500000e+000  1.101789e+001  3.070711e+001
    endloop
  endfacet
  facet normal  1.000000e+000  0.000000e+000  -0.000000e+000
    outer loop
      vertex  2.500000e+000 -1.472500e+001  3.300000e+001
      vertex  2.500000e+000  1.101789e+001  3.070711e+001
      vertex  2.500000e+000  1.172500e+001  3.100000e+001
    endloop
  endfacet
  facet normal  1.000000e+000  0.000000e+000  -0.000000e+000
    outer loop
      vertex  2.500000e+000 -1.472500e+001  3.300000e+001
      vertex  2.500000e+000  1.172500e+001  3.100000e+001
      vertex  2.500000e+000  1.472500e+001  3.300000e+001
    endloop
  endfacet
  facet normal  9.999999e-001  0.000000e+000  0.000000e+000
    outer loop
      vertex  2.500000e+000  1.472500e+001  3.552714e-015
      vertex  2.500000e+000  1.272500e+001  3.000000e+001
      vertex  2.500000e+000  1.243211e+001  2.929289e+001
    endloop
  endfacet
  facet normal  1.000000e+000  0.000000e+000  0.000000e+000
    outer loop
      vertex  2.500000e+000  1.472500e+001  3.552714e-015
      vertex  2.500000e+000  1.243211e+001  2.929289e+001
      vertex  2.500000e+000  1.172500e+001  2.900000e+001
    endloop
  endfacet
  facet normal  1.000000e+000  0.000000e+000  0.000000e+000
    outer loop
      vertex  2.500000e+000  1.472500e+001  3.552714e-015
      vertex  2.500000e+000  1.172500e+001  2.900000e+001
      vertex  2.500000e+000  1.243211e+001  3.707107e+000
    endloop
  endfacet
  facet normal  1.000000e+000  0.000000e+000  0.000000e+000
    outer loop
      vertex  2.500000e+000  1.472500e+001  3.552714e-015
      vertex  2.500000e+000  1.243211e+001  3.707107e+000
      vertex  2.500000e+000  1.272500e+001  3.000000e+000
    endloop
  endfacet
  facet normal  1.000000e+000  0.000000e+000  0.000000e+000
    outer loop
      vertex  2.500000e+000  1.472500e+001  3.552714e-015
      vertex  2.500000e+000  1.272500e+001  3.000000e+000
      vertex  2.500000e+000  1.243211e+001  2.292893e+000
    endloop
  endfacet
  facet normal  1.000000e+000  0.000000e+000  0.000000e+000
    outer loop
      vertex  2.500000e+000  1.472500e+001  3.552714e-015
      vertex  2.500000e+000  1.243211e+001  2.292893e+000
      vertex  2.500000e+000  1.172500e+001  2.000000e+000
    endloop
  endfacet
  facet normal  1.000000e+000  -0.000000e+000  0.000000e+000
    outer loop
      vertex  2.500000e+000  1.472500e+001  3.300000e+001
      vertex  2.500000e+000  1.172500e+001  3.100000e+001
      vertex  2.500000e+000  1.243211e+001  3.070711e+001
    endloop
  endfacet
  facet normal  1.000000e+000  -0.000000e+000  0.000000e+000
    outer loop
      vertex  2.500000e+000  1.472500e+001  3.300000e+001
      vertex  2.500000e+000  1.243211e+001  3.070711e+001
      vertex  2.500000e+000  1.272500e+001  3.000000e+001
    endloop
  endfacet
  facet normal  1.000000e+000  -0.000000e+000  0.000000e+000
    outer loop
      vertex  2.500000e+000  1.472500e+001  3.300000e+001
      vertex  2.500000e+000  1.272500e+001  3.000000e+001
      vertex  2.500000e+000  1.472500e+001  3.552714e-015
    endloop
  endfacet
  facet normal  -0.000000e+000  0.000000e+000 -1.000000e+000
    outer loop
      vertex  2.500000e+000  5.000000e+000  5.000000e+000
      vertex  5.898875e+000  5.000000e+000  5.000000e+000
      vertex  2.500000e+000 -5.000000e+000  5.000000e+000
    endloop
  endfacet
  facet normal  0.000000e+000  0.000000e+000 -1.000000e+000
    outer loop
      vertex  2.500000e+000 -5.000000e+000  5.000000e+000
      vertex  5.898875e+000  5.000000e+000  5.000000e+000
      vertex  5.898875e+000 -5.000000e+000  5.000000e+000
    endloop
  endfacet
  facet normal -1.000000e+000  -0.000000e+000  0.000000e+000
    outer loop
      vertex  0.000000e+000 -1.172500e+001  2.900000e+001
      vertex  0.000000e+000 -1.172500e+001  4.000000e+000
      vertex  0.000000e+000 -1.243211e+001  3.707107e+000
    endloop
  endfacet
  facet normal -1.000000e+000  0.000000e+000  0.000000e+000
    outer loop
      vertex  0.000000e+000  1.172500e+001  4.000000e+000
      vertex  0.000000e+000  1.172500e+001  2.900000e+001
      vertex  0.000000e+000  1.243211e+001  3.707107e+000
    endloop
  endfacet
  facet normal -1.000000e+000  -0.000000e+000  0.000000e+000
    outer loop
      vertex  0.000000e+000 -1.472500e+001  3.300000e+001
      vertex  0.000000e+000  1.472500e+001  3.300000e+001
      vertex  0.000000e+000  1.172500e+001  3.100000e+001
    endloop
  endfacet
  facet normal -1.000000e+000  0.000000e+000  0.000000e+000
    outer loop
      vertex  0.000000e+000 -1.472500e+001  3.300000e+001
      vertex  0.000000e+000  1.172500e+001  3.100000e+001
      vertex  0.000000e+000 -1.172500e+001  3.100000e+001
    endloop
  endfacet
  facet normal -1.000000e+000  -0.000000e+000  0.000000e+000
    outer loop
      vertex  0.000000e+000 -1.472500e+001  3.300000e+001
      vertex  0.000000e+000 -1.172500e+001  3.100000e+001
      vertex  0.000000e+000 -1.243211e+001  3.070711e+001
    endloop
  endfacet
  facet normal -1.000000e+000  1.110222e-016  1.110222e-016
    outer loop
      vertex  0.000000e+000 -1.472500e+001  3.300000e+001
      vertex  0.000000e+000 -1.243211e+001  3.070711e+001
      vertex -1.110223e-016 -1.272500e+001  3.000000e+001
    endloop
  endfacet
  facet normal -1.000000e+000 -5.551115e-017  0.000000e+000
    outer loop
      vertex  0.000000e+000 -1.472500e+001  3.300000e+001
      vertex -1.110223e-016 -1.272500e+001  3.000000e+001
      vertex  0.000000e+000 -1.472500e+001  3.552714e-015
    endloop
  endfacet
  facet normal -9.999999e-001  3.188078e-016 -2.495460e-017
    outer loop
      vertex  0.000000e+000 -1.472500e+001  3.552714e-015
      vertex -1.110223e-016 -1.272500e+001  3.000000e+001
      vertex  0.000000e+000 -1.243211e+001  2.929289e+001
    endloop
  endfacet
  facet normal -1.000000e+000  0.000000e+000  -0.000000e+000
    outer loop
      vertex  0.000000e+000 -1.472500e+001  3.552714e-015
      vertex  0.000000e+000 -1.243211e+001  2.929289e+001
      vertex  0.000000e+000 -1.172500e+001  2.900000e+001
    endloop
  endfacet
  facet normal -1.000000e+000  0.000000e+000  0.000000e+000
    outer loop
      vertex  0.000000e+000 -1.472500e+001  3.552714e-015
      vertex  0.000000e+000 -1.172500e+001  2.900000e+001
      vertex  0.000000e+000 -1.243211e+001  3.707107e+000
    endloop
  endfacet
  facet normal -1.000000e+000 -7.685263e-016  4.753435e-016
    outer loop
      vertex  0.000000e+000 -1.472500e+001  3.552714e-015
      vertex  0.000000e+000 -1.243211e+001  3.707107e+000
      vertex -1.110223e-016 -1.272500e+001  3.000000e+000
    endloop
  endfacet
  facet normal -1.000000e+000  1.110223e-016 -1.110223e-016
    outer loop
      vertex  0.000000e+000 -1.472500e+001  3.552714e-015
      vertex -1.110223e-016 -1.272500e+001  3.000000e+000
      vertex  0.000000e+000 -1.243211e+001  2.292893e+000
    endloop
  endfacet
  facet normal -1.000000e+000  0.000000e+000  -0.000000e+000
    outer loop
      vertex  0.000000e+000 -1.472500e+001  3.552714e-015
      vertex  0.000000e+000 -1.243211e+001  2.292893e+000
      vertex  0.000000e+000 -1.172500e+001  2.000000e+000
    endloop
  endfacet
  facet normal -1.000000e+000  0.000000e+000  -0.000000e+000
    outer loop
      vertex  0.000000e+000 -1.472500e+001  3.552714e-015
      vertex  0.000000e+000 -1.172500e+001  2.000000e+000
      vertex  0.000000e+000  1.172500e+001  2.000000e+000
    endloop
  endfacet
  facet normal -1.000000e+000  0.000000e+000  -0.000000e+000
    outer loop
      vertex  0.000000e+000 -1.472500e+001  3.552714e-015
      vertex  0.000000e+000  1.172500e+001  2.000000e+000
      vertex  0.000000e+000  1.472500e+001  3.552714e-015
    endloop
  endfacet
  facet normal -1.000000e+000  0.000000e+000  0.000000e+000
    outer loop
      vertex  0.000000e+000  1.472500e+001  3.552714e-015
      vertex  0.000000e+000  1.172500e+001  2.000000e+000
      vertex  0.000000e+000  1.243211e+001  2.292893e+000
    endloop
  endfacet
  facet normal -1.000000e+000  0.000000e+000  0.000000e+000
    outer loop
      vertex  0.000000e+000  1.472500e+001  3.552714e-015
      vertex  0.000000e+000  1.243211e+001  2.292893e+000
      vertex  0.000000e+000  1.272500e+001  3.000000e+000
    endloop
  endfacet
  facet normal -1.000000e+000  0.000000e+000  0.000000e+000
    outer loop
      vertex  0.000000e+000  1.472500e+001  3.552714e-015
      vertex  0.000000e+000  1.272500e+001  3.000000e+000
      vertex  0.000000e+000  1.243211e+001  3.707107e+000
    endloop
  endfacet
  facet normal -1.000000e+000  0.000000e+000  0.000000e+000
    outer loop
      vertex  0.000000e+000  1.472500e+001  3.552714e-015
      vertex  0.000000e+000  1.243211e+001  3.707107e+000
      vertex  0.000000e+000  1.172500e+001  2.900000e+001
    endloop
  endfacet
  facet normal -1.000000e+000  0.000000e+000  0.000000e+000
    outer loop
      vertex  0.000000e+000  1.472500e+001  3.552714e-015
      vertex  0.000000e+000  1.172500e+001  2.900000e+001
      vertex  0.000000e+000  1.243211e+001  2.929289e+001
    endloop
  endfacet
  facet normal -9.999999e-001  0.000000e+000  0.000000e+000
    outer loop
      vertex  0.000000e+000  1.472500e+001  3.552714e-015
      vertex  0.000000e+000  1.243211e+001  2.929289e+001
      vertex  0.000000e+000  1.272500e+001  3.000000e+001
    endloop
  endfacet
  facet normal -1.000000e+000  0.000000e+000  0.000000e+000
    outer loop
      vertex  0.000000e+000  1.472500e+001  3.300000e+001
      vertex  0.000000e+000  1.472500e+001  3.552714e-015
      vertex  0.000000e+000  1.272500e+001  3.000000e+001
    endloop
  endfacet
  facet normal -1.000000e+000  0.000000e+000  0.000000e+000
    outer loop
      vertex  0.000000e+000  1.472500e+001  3.300000e+001
      vertex  0.000000e+000  1.272500e+001  3.000000e+001
      vertex  0.000000e+000  1.243211e+001  3.070711e+001
    endloop
  endfacet
  facet normal -1.000000e+000  0.000000e+000  0.000000e+000
    outer loop
      vertex  0.000000e+000  1.472500e+001  3.300000e+001
      vertex  0.000000e+000  1.243211e+001  3.070711e+001
      vertex  0.000000e+000  1.172500e+001  3.100000e+001
    endloop
  endfacet
  facet normal -1.000000e+000  0.000000e+000  0.000000e+000
    outer loop
      vertex  0.000000e+000  1.172500e+001  2.900000e+001
      vertex  0.000000e+000 -1.101789e+001  2.929289e+001
      vertex  0.000000e+000  1.101789e+001  2.929289e+001
    endloop
  endfacet
  facet normal -9.999999e-001  0.000000e+000  0.000000e+000
    outer loop
      vertex  0.000000e+000  1.101789e+001  2.929289e+001
      vertex  0.000000e+000 -1.101789e+001  2.929289e+001
      vertex  0.000000e+000 -1.072500e+001  3.000000e+001
    endloop
  endfacet
  facet normal -1.000000e+000 -5.175865e-018 -1.591530e-016
    outer loop
      vertex  0.000000e+000  1.101789e+001  2.929289e+001
      vertex  0.000000e+000 -1.072500e+001  3.000000e+001
      vertex -1.110223e-016  1.072500e+001  3.000000e+001
    endloop
  endfacet
  facet normal -1.000000e+000 -5.175865e-018 -2.143905e-018
    outer loop
      vertex -1.110223e-016  1.072500e+001  3.000000e+001
      vertex  0.000000e+000 -1.072500e+001  3.000000e+001
      vertex  0.000000e+000 -1.101789e+001  3.070711e+001
    endloop
  endfacet
  facet normal -9.999999e-001  0.000000e+000  1.570091e-016
    outer loop
      vertex -1.110223e-016  1.072500e+001  3.000000e+001
      vertex  0.000000e+000 -1.101789e+001  3.070711e+001
      vertex  0.000000e+000  1.101789e+001  3.070711e+001
    endloop
  endfacet
  facet normal -1.000000e+000  0.000000e+000  0.000000e+000
    outer loop
      vertex  0.000000e+000  1.101789e+001  3.070711e+001
      vertex  0.000000e+000 -1.101789e+001  3.070711e+001
      vertex  0.000000e+000 -1.172500e+001  3.100000e+001
    endloop
  endfacet
  facet normal -9.999999e-001  0.000000e+000  0.000000e+000
    outer loop
      vertex  0.000000e+000  1.101789e+001  3.070711e+001
      vertex  0.000000e+000 -1.172500e+001  3.100000e+001
      vertex  0.000000e+000  1.172500e+001  3.100000e+001
    endloop
  endfacet
  facet normal -9.999999e-001  0.000000e+000  0.000000e+000
    outer loop
      vertex  0.000000e+000 -1.101789e+001  2.929289e+001
      vertex  0.000000e+000  1.172500e+001  2.900000e+001
      vertex  0.000000e+000 -1.172500e+001  2.900000e+001
    endloop
  endfacet
  facet normal -9.999999e-001  0.000000e+000  0.000000e+000
    outer loop
      vertex  0.000000e+000 -1.172500e+001  2.900000e+001
      vertex  0.000000e+000  1.172500e+001  2.900000e+001
      vertex  0.000000e+000  1.172500e+001  4.000000e+000
    endloop
  endfacet
  facet normal -9.999999e-001  0.000000e+000  0.000000e+000
    outer loop
      vertex  0.000000e+000 -1.172500e+001  2.900000e+001
      vertex  0.000000e+000  1.172500e+001  4.000000e+000
      vertex  0.000000e+000 -1.172500e+001  4.000000e+000
    endloop
  endfacet
  facet normal -1.000000e+000  0.000000e+000  0.000000e+000
    outer loop
      vertex  0.000000e+000 -1.172500e+001  4.000000e+000
      vertex  0.000000e+000  1.172500e+001  4.000000e+000
      vertex  0.000000e+000  1.101789e+001  3.707107e+000
    endloop
  endfacet
  facet normal -9.999999e-001  0.000000e+000  0.000000e+000
    outer loop
      vertex  0.000000e+000 -1.172500e+001  4.000000e+000
      vertex  0.000000e+000  1.101789e+001  3.707107e+000
      vertex  0.000000e+000 -1.101789e+001  3.707107e+000
    endloop
  endfacet
  facet normal -9.999999e-001  0.000000e+000  1.570092e-016
    outer loop
      vertex  0.000000e+000 -1.101789e+001  3.707107e+000
      vertex  0.000000e+000  1.101789e+001  3.707107e+000
      vertex -1.110223e-016  1.072500e+001  3.000000e+000
    endloop
  endfacet
  facet normal -1.000000e+000 -5.175865e-018 -2.143908e-018
    outer loop
      vertex  0.000000e+000 -1.101789e+001  3.707107e+000
      vertex -1.110223e-016  1.072500e+001  3.000000e+000
      vertex  0.000000e+000 -1.072500e+001  3.000000e+000
    endloop
  endfacet
  facet normal -1.000000e+000 -5.175865e-018 -1.591531e-016
    outer loop
      vertex  0.000000e+000 -1.072500e+001  3.000000e+000
      vertex -1.110223e-016  1.072500e+001  3.000000e+000
      vertex  0.000000e+000  1.101789e+001  2.292893e+000
    endloop
  endfacet
  facet normal -9.999999e-001  0.000000e+000  0.000000e+000
    outer loop
      vertex  0.000000e+000 -1.072500e+001  3.000000e+000
      vertex  0.000000e+000  1.101789e+001  2.292893e+000
      vertex  0.000000e+000 -1.101789e+001  2.292893e+000
    endloop
  endfacet
  facet normal -9.999999e-001  0.000000e+000  0.000000e+000
    outer loop
      vertex  0.000000e+000 -1.101789e+001  2.292893e+000
      vertex  0.000000e+000  1.101789e+001  2.292893e+000
      vertex  0.000000e+000  1.172500e+001  2.000000e+000
    endloop
  endfacet
  facet normal -1.000000e+000  0.000000e+000  0.000000e+000
    outer loop
      vertex  0.000000e+000 -1.101789e+001  2.292893e+000
      vertex  0.000000e+000  1.172500e+001  2.000000e+000
      vertex  0.000000e+000 -1.172500e+001  2.000000e+000
    endloop
  endfacet
  facet normal  0.000000e+000  3.826835e-001 -9.238795e-001
    outer loop
      vertex  0.000000e+000 -1.172500e+001  4.000000e+000
      vertex  2.500000e+000 -1.243211e+001  3.707107e+000
      vertex  0.000000e+000 -1.243211e+001  3.707107e+000
    endloop
  endfacet
  facet normal  0.000000e+000  9.238794e-001 -3.826836e-001
    outer loop
      vertex  0.000000e+000 -1.243211e+001  3.707107e+000
      vertex  2.500000e+000 -1.243211e+001  3.707107e+000
      vertex  2.500000e+000 -1.272500e+001  3.000000e+000
    endloop
  endfacet
  facet normal  0.000000e+000  9.238794e-001 -3.826836e-001
    outer loop
      vertex  0.000000e+000 -1.243211e+001  3.707107e+000
      vertex  2.500000e+000 -1.272500e+001  3.000000e+000
      vertex -1.110223e-016 -1.272500e+001  3.000000e+000
    endloop
  endfacet
  facet normal  0.000000e+000  3.826835e-001 -9.238795e-001
    outer loop
      vertex  2.500000e+000 -1.243211e+001  3.707107e+000
      vertex  0.000000e+000 -1.172500e+001  4.000000e+000
      vertex  2.500000e+000 -1.172500e+001  4.000000e+000
    endloop
  endfacet
  facet normal  -0.000000e+000 -3.826830e-001 -9.238797e-001
    outer loop
      vertex  2.500000e+000 -1.172500e+001  4.000000e+000
      vertex  0.000000e+000 -1.172500e+001  4.000000e+000
      vertex  0.000000e+000 -1.101789e+001  3.707107e+000
    endloop
  endfacet
  facet normal  0.000000e+000 -3.826830e-001 -9.238797e-001
    outer loop
      vertex  2.500000e+000 -1.172500e+001  4.000000e+000
      vertex  0.000000e+000 -1.101789e+001  3.707107e+000
      vertex  2.500000e+000 -1.101789e+001  3.707107e+000
    endloop
  endfacet
  facet normal  -0.000000e+000 -9.238799e-001 -3.826826e-001
    outer loop
      vertex  2.500000e+000 -1.101789e+001  3.707107e+000
      vertex  0.000000e+000 -1.101789e+001  3.707107e+000
      vertex  0.000000e+000 -1.072500e+001  3.000000e+000
    endloop
  endfacet
  facet normal  0.000000e+000 -9.238799e-001 -3.826826e-001
    outer loop
      vertex  2.500000e+000 -1.101789e+001  3.707107e+000
      vertex  0.000000e+000 -1.072500e+001  3.000000e+000
      vertex  2.500000e+000 -1.072500e+001  3.000000e+000
    endloop
  endfacet
  facet normal  0.000000e+000 -3.826830e-001  9.238797e-001
    outer loop
      vertex  0.000000e+000 -1.172500e+001  2.000000e+000
      vertex  2.500000e+000 -1.101789e+001  2.292893e+000
      vertex  0.000000e+000 -1.101789e+001  2.292893e+000
    endloop
  endfacet
  facet normal  0.000000e+000 -9.238799e-001  3.826826e-001
    outer loop
      vertex  0.000000e+000 -1.101789e+001  2.292893e+000
      vertex  2.500000e+000 -1.101789e+001  2.292893e+000
      vertex  2.500000e+000 -1.072500e+001  3.000000e+000
    endloop
  endfacet
  facet normal  0.000000e+000 -9.238799e-001  3.826826e-001
    outer loop
      vertex  0.000000e+000 -1.101789e+001  2.292893e+000
      vertex  2.500000e+000 -1.072500e+001  3.000000e+000
      vertex  0.000000e+000 -1.072500e+001  3.000000e+000
    endloop
  endfacet
  facet normal  0.000000e+000 -3.826830e-001  9.238797e-001
    outer loop
      vertex  2.500000e+000 -1.101789e+001  2.292893e+000
      vertex  0.000000e+000 -1.172500e+001  2.000000e+000
      vertex  2.500000e+000 -1.172500e+001  2.000000e+000
    endloop
  endfacet
  facet normal  0.000000e+000  3.826835e-001  9.238795e-001
    outer loop
      vertex  2.500000e+000 -1.172500e+001  2.000000e+000
      vertex  0.000000e+000 -1.172500e+001  2.000000e+000
      vertex  0.000000e+000 -1.243211e+001  2.292893e+000
    endloop
  endfacet
  facet normal  -0.000000e+000  3.826835e-001  9.238795e-001
    outer loop
      vertex  2.500000e+000 -1.172500e+001  2.000000e+000
      vertex  0.000000e+000 -1.243211e+001  2.292893e+000
      vertex  2.500000e+000 -1.243211e+001  2.292893e+000
    endloop
  endfacet
  facet normal  0.000000e+000  9.238794e-001  3.826836e-001
    outer loop
      vertex  2.500000e+000 -1.243211e+001  2.292893e+000
      vertex  0.000000e+000 -1.243211e+001  2.292893e+000
      vertex -1.110223e-016 -1.272500e+001  3.000000e+000
    endloop
  endfacet
  facet normal  -0.000000e+000  9.238794e-001  3.826836e-001
    outer loop
      vertex  2.500000e+000 -1.243211e+001  2.292893e+000
      vertex -1.110223e-016 -1.272500e+001  3.000000e+000
      vertex  2.500000e+000 -1.272500e+001  3.000000e+000
    endloop
  endfacet
  facet normal  0.000000e+000  3.826830e-001 -9.238797e-001
    outer loop
      vertex  0.000000e+000  1.172500e+001  4.000000e+000
      vertex  2.500000e+000  1.101789e+001  3.707107e+000
      vertex  0.000000e+000  1.101789e+001  3.707107e+000
    endloop
  endfacet
  facet normal  0.000000e+000  9.238799e-001 -3.826826e-001
    outer loop
      vertex  0.000000e+000  1.101789e+001  3.707107e+000
      vertex  2.500000e+000  1.101789e+001  3.707107e+000
      vertex  2.500000e+000  1.072500e+001  3.000000e+000
    endloop
  endfacet
  facet normal  0.000000e+000  9.238799e-001 -3.826826e-001
    outer loop
      vertex  0.000000e+000  1.101789e+001  3.707107e+000
      vertex  2.500000e+000  1.072500e+001  3.000000e+000
      vertex -1.110223e-016  1.072500e+001  3.000000e+000
    endloop
  endfacet
  facet normal  0.000000e+000  3.826830e-001 -9.238797e-001
    outer loop
      vertex  2.500000e+000  1.101789e+001  3.707107e+000
      vertex  0.000000e+000  1.172500e+001  4.000000e+000
      vertex  2.500000e+000  1.172500e+001  4.000000e+000
    endloop
  endfacet
  facet normal  -0.000000e+000 -3.826835e-001 -9.238795e-001
    outer loop
      vertex  2.500000e+000  1.172500e+001  4.000000e+000
      vertex  0.000000e+000  1.172500e+001  4.000000e+000
      vertex  0.000000e+000  1.243211e+001  3.707107e+000
    endloop
  endfacet
  facet normal  0.000000e+000 -3.826835e-001 -9.238795e-001
    outer loop
      vertex  2.500000e+000  1.172500e+001  4.000000e+000
      vertex  0.000000e+000  1.243211e+001  3.707107e+000
      vertex  2.500000e+000  1.243211e+001  3.707107e+000
    endloop
  endfacet
  facet normal  -0.000000e+000 -9.238794e-001 -3.826836e-001
    outer loop
      vertex  2.500000e+000  1.243211e+001  3.707107e+000
      vertex  0.000000e+000  1.243211e+001  3.707107e+000
      vertex  0.000000e+000  1.272500e+001  3.000000e+000
    endloop
  endfacet
  facet normal  0.000000e+000 -9.238794e-001 -3.826836e-001
    outer loop
      vertex  2.500000e+000  1.243211e+001  3.707107e+000
      vertex  0.000000e+000  1.272500e+001  3.000000e+000
      vertex  2.500000e+000  1.272500e+001  3.000000e+000
    endloop
  endfacet
  facet normal  0.000000e+000 -3.826835e-001  9.238795e-001
    outer loop
      vertex  0.000000e+000  1.172500e+001  2.000000e+000
      vertex  2.500000e+000  1.243211e+001  2.292893e+000
      vertex  0.000000e+000  1.243211e+001  2.292893e+000
    endloop
  endfacet
  facet normal  0.000000e+000 -9.238794e-001  3.826836e-001
    outer loop
      vertex  0.000000e+000  1.243211e+001  2.292893e+000
      vertex  2.500000e+000  1.243211e+001  2.292893e+000
      vertex  2.500000e+000  1.272500e+001  3.000000e+000
    endloop
  endfacet
  facet normal  0.000000e+000 -9.238794e-001  3.826836e-001
    outer loop
      vertex  0.000000e+000  1.243211e+001  2.292893e+000
      vertex  2.500000e+000  1.272500e+001  3.000000e+000
      vertex  0.000000e+000  1.272500e+001  3.000000e+000
    endloop
  endfacet
  facet normal  0.000000e+000 -3.826835e-001  9.238795e-001
    outer loop
      vertex  2.500000e+000  1.243211e+001  2.292893e+000
      vertex  0.000000e+000  1.172500e+001  2.000000e+000
      vertex  2.500000e+000  1.172500e+001  2.000000e+000
    endloop
  endfacet
  facet normal  0.000000e+000  3.826830e-001  9.238797e-001
    outer loop
      vertex  2.500000e+000  1.172500e+001  2.000000e+000
      vertex  0.000000e+000  1.172500e+001  2.000000e+000
      vertex  0.000000e+000  1.101789e+001  2.292893e+000
    endloop
  endfacet
  facet normal  -0.000000e+000  3.826830e-001  9.238797e-001
    outer loop
      vertex  2.500000e+000  1.172500e+001  2.000000e+000
      vertex  0.000000e+000  1.101789e+001  2.292893e+000
      vertex  2.500000e+000  1.101789e+001  2.292893e+000
    endloop
  endfacet
  facet normal  0.000000e+000  9.238799e-001  3.826826e-001
    outer loop
      vertex  2.500000e+000  1.101789e+001  2.292893e+000
      vertex  0.000000e+000  1.101789e+001  2.292893e+000
      vertex -1.110223e-016  1.072500e+001  3.000000e+000
    endloop
  endfacet
  facet normal  -0.000000e+000  9.238799e-001  3.826826e-001
    outer loop
      vertex  2.500000e+000  1.101789e+001  2.292893e+000
      vertex -1.110223e-016  1.072500e+001  3.000000e+000
      vertex  2.500000e+000  1.072500e+001  3.000000e+000
    endloop
  endfacet
  facet normal  0.000000e+000  3.826822e-001 -9.238800e-001
    outer loop
      vertex  0.000000e+000  1.172500e+001  3.100000e+001
      vertex  2.500000e+000  1.101789e+001  3.070711e+001
      vertex  0.000000e+000  1.101789e+001  3.070711e+001
    endloop
  endfacet
  facet normal  0.000000e+000  9.238800e-001 -3.826822e-001
    outer loop
      vertex  0.000000e+000  1.101789e+001  3.070711e+001
      vertex  2.500000e+000  1.101789e+001  3.070711e+001
      vertex  2.500000e+000  1.072500e+001  3.000000e+001
    endloop
  endfacet
  facet normal  0.000000e+000  9.238800e-001 -3.826822e-001
    outer loop
      vertex  0.000000e+000  1.101789e+001  3.070711e+001
      vertex  2.500000e+000  1.072500e+001  3.000000e+001
      vertex -1.110223e-016  1.072500e+001  3.000000e+001
    endloop
  endfacet
  facet normal  0.000000e+000  3.826822e-001 -9.238800e-001
    outer loop
      vertex  2.500000e+000  1.101789e+001  3.070711e+001
      vertex  0.000000e+000  1.172500e+001  3.100000e+001
      vertex  2.500000e+000  1.172500e+001  3.100000e+001
    endloop
  endfacet
  facet normal  -0.000000e+000 -3.826827e-001 -9.238799e-001
    outer loop
      vertex  2.500000e+000  1.172500e+001  3.100000e+001
      vertex  0.000000e+000  1.172500e+001  3.100000e+001
      vertex  0.000000e+000  1.243211e+001  3.070711e+001
    endloop
  endfacet
  facet normal  0.000000e+000 -3.826827e-001 -9.238799e-001
    outer loop
      vertex  2.500000e+000  1.172500e+001  3.100000e+001
      vertex  0.000000e+000  1.243211e+001  3.070711e+001
      vertex  2.500000e+000  1.243211e+001  3.070711e+001
    endloop
  endfacet
  facet normal  -0.000000e+000 -9.238796e-001 -3.826833e-001
    outer loop
      vertex  2.500000e+000  1.243211e+001  3.070711e+001
      vertex  0.000000e+000  1.243211e+001  3.070711e+001
      vertex  0.000000e+000  1.272500e+001  3.000000e+001
    endloop
  endfacet
  facet normal  0.000000e+000 -9.238796e-001 -3.826833e-001
    outer loop
      vertex  2.500000e+000  1.243211e+001  3.070711e+001
      vertex  0.000000e+000  1.272500e+001  3.000000e+001
      vertex  2.500000e+000  1.272500e+001  3.000000e+001
    endloop
  endfacet
  facet normal  0.000000e+000 -3.826827e-001  9.238799e-001
    outer loop
      vertex  0.000000e+000  1.172500e+001  2.900000e+001
      vertex  2.500000e+000  1.243211e+001  2.929289e+001
      vertex  0.000000e+000  1.243211e+001  2.929289e+001
    endloop
  endfacet
  facet normal  0.000000e+000 -9.238796e-001  3.826833e-001
    outer loop
      vertex  0.000000e+000  1.243211e+001  2.929289e+001
      vertex  2.500000e+000  1.243211e+001  2.929289e+001
      vertex  2.500000e+000  1.272500e+001  3.000000e+001
    endloop
  endfacet
  facet normal  0.000000e+000 -9.238796e-001  3.826833e-001
    outer loop
      vertex  0.000000e+000  1.243211e+001  2.929289e+001
      vertex  2.500000e+000  1.272500e+001  3.000000e+001
      vertex  0.000000e+000  1.272500e+001  3.000000e+001
    endloop
  endfacet
  facet normal  0.000000e+000 -3.826827e-001  9.238799e-001
    outer loop
      vertex  2.500000e+000  1.243211e+001  2.929289e+001
      vertex  0.000000e+000  1.172500e+001  2.900000e+001
      vertex  2.500000e+000  1.172500e+001  2.900000e+001
    endloop
  endfacet
  facet normal  0.000000e+000  3.826822e-001  9.238800e-001
    outer loop
      vertex  2.500000e+000  1.172500e+001  2.900000e+001
      vertex  0.000000e+000  1.172500e+001  2.900000e+001
      vertex  0.000000e+000  1.101789e+001  2.929289e+001
    endloop
  endfacet
  facet normal  -0.000000e+000  3.826822e-001  9.238800e-001
    outer loop
      vertex  2.500000e+000  1.172500e+001  2.900000e+001
      vertex  0.000000e+000  1.101789e+001  2.929289e+001
      vertex  2.500000e+000  1.101789e+001  2.929289e+001
    endloop
  endfacet
  facet normal  0.000000e+000  9.238800e-001  3.826822e-001
    outer loop
      vertex  2.500000e+000  1.101789e+001  2.929289e+001
      vertex  0.000000e+000  1.101789e+001  2.929289e+001
      vertex -1.110223e-016  1.072500e+001  3.000000e+001
    endloop
  endfacet
  facet normal  -0.000000e+000  9.238800e-001  3.826822e-001
    outer loop
      vertex  2.500000e+000  1.101789e+001  2.929289e+001
      vertex -1.110223e-016  1.072500e+001  3.000000e+001
      vertex  2.500000e+000  1.072500e+001  3.000000e+001
    endloop
  endfacet
  facet normal  0.000000e+000  3.826827e-001 -9.238799e-001
    outer loop
      vertex  0.000000e+000 -1.172500e+001  3.100000e+001
      vertex  2.500000e+000 -1.243211e+001  3.070711e+001
      vertex  0.000000e+000 -1.243211e+001  3.070711e+001
    endloop
  endfacet
  facet normal  0.000000e+000  9.238796e-001 -3.826833e-001
    outer loop
      vertex  0.000000e+000 -1.243211e+001  3.070711e+001
      vertex  2.500000e+000 -1.243211e+001  3.070711e+001
      vertex  2.500000e+000 -1.272500e+001  3.000000e+001
    endloop
  endfacet
  facet normal  0.000000e+000  9.238796e-001 -3.826833e-001
    outer loop
      vertex  0.000000e+000 -1.243211e+001  3.070711e+001
      vertex  2.500000e+000 -1.272500e+001  3.000000e+001
      vertex -1.110223e-016 -1.272500e+001  3.000000e+001
    endloop
  endfacet
  facet normal  0.000000e+000  3.826827e-001 -9.238799e-001
    outer loop
      vertex  2.500000e+000 -1.243211e+001  3.070711e+001
      vertex  0.000000e+000 -1.172500e+001  3.100000e+001
      vertex  2.500000e+000 -1.172500e+001  3.100000e+001
    endloop
  endfacet
  facet normal  -0.000000e+000 -3.826822e-001 -9.238800e-001
    outer loop
      vertex  2.500000e+000 -1.172500e+001  3.100000e+001
      vertex  0.000000e+000 -1.172500e+001  3.100000e+001
      vertex  0.000000e+000 -1.101789e+001  3.070711e+001
    endloop
  endfacet
  facet normal  0.000000e+000 -3.826822e-001 -9.238800e-001
    outer loop
      vertex  2.500000e+000 -1.172500e+001  3.100000e+001
      vertex  0.000000e+000 -1.101789e+001  3.070711e+001
      vertex  2.500000e+000 -1.101789e+001  3.070711e+001
    endloop
  endfacet
  facet normal  -0.000000e+000 -9.238800e-001 -3.826822e-001
    outer loop
      vertex  2.500000e+000 -1.101789e+001  3.070711e+001
      vertex  0.000000e+000 -1.101789e+001  3.070711e+001
      vertex  0.000000e+000 -1.072500e+001  3.000000e+001
    endloop
  endfacet
  facet normal  0.000000e+000 -9.238800e-001 -3.826822e-001
    outer loop
      vertex  2.500000e+000 -1.101789e+001  3.070711e+001
      vertex  0.000000e+000 -1.072500e+001  3.000000e+001
      vertex  2.500000e+000 -1.072500e+001  3.000000e+001
    endloop
  endfacet
  facet normal  0.000000e+000 -3.826822e-001  9.238800e-001
    outer loop
      vertex  0.000000e+000 -1.172500e+001  2.900000e+001
      vertex  2.500000e+000 -1.101789e+001  2.929289e+001
      vertex  0.000000e+000 -1.101789e+001  2.929289e+001
    endloop
  endfacet
  facet normal  0.000000e+000 -9.238800e-001  3.826822e-001
    outer loop
      vertex  0.000000e+000 -1.101789e+001  2.929289e+001
      vertex  2.500000e+000 -1.101789e+001  2.929289e+001
      vertex  2.500000e+000 -1.072500e+001  3.000000e+001
    endloop
  endfacet
  facet normal  0.000000e+000 -9.238800e-001  3.826822e-001
    outer loop
      vertex  0.000000e+000 -1.101789e+001  2.929289e+001
      vertex  2.500000e+000 -1.072500e+001  3.000000e+001
      vertex  0.000000e+000 -1.072500e+001  3.000000e+001
    endloop
  endfacet
  facet normal  0.000000e+000 -3.826822e-001  9.238800e-001
    outer loop
      vertex  2.500000e+000 -1.101789e+001  2.929289e+001
      vertex  0.000000e+000 -1.172500e+001  2.900000e+001
      vertex  2.500000e+000 -1.172500e+001  2.900000e+001
    endloop
  endfacet
  facet normal  0.000000e+000  3.826827e-001  9.238799e-001
    outer loop
      vertex  2.500000e+000 -1.172500e+001  2.900000e+001
      vertex  0.000000e+000 -1.172500e+001  2.900000e+001
      vertex  0.000000e+000 -1.243211e+001  2.929289e+001
    endloop
  endfacet
  facet normal  -0.000000e+000  3.826827e-001  9.238799e-001
    outer loop
      vertex  2.500000e+000 -1.172500e+001  2.900000e+001
      vertex  0.000000e+000 -1.243211e+001  2.929289e+001
      vertex  2.500000e+000 -1.243211e+001  2.929289e+001
    endloop
  endfacet
  facet normal  0.000000e+000  9.238796e-001  3.826833e-001
    outer loop
      vertex  2.500000e+000 -1.243211e+001  2.929289e+001
      vertex  0.000000e+000 -1.243211e+001  2.929289e+001
      vertex -1.110223e-016 -1.272500e+001  3.000000e+001
    endloop
  endfacet
  facet normal  -0.000000e+000  9.238796e-001  3.826833e-001
    outer loop
      vertex  2.500000e+000 -1.243211e+001  2.929289e+001
      vertex -1.110223e-016 -1.272500e+001  3.000000e+001
      vertex  2.500000e+000 -1.272500e+001  3.000000e+001
    endloop
  endfacet
  facet normal  0.000000e+000 -9.999999e-001  0.000000e+000
    outer loop
      vertex  2.500000e+000 -1.472500e+001  3.300000e+001
      vertex  0.000000e+000 -1.472500e+001  3.300000e+001
      vertex  2.500000e+000 -1.472500e+001  3.552714e-015
    endloop
  endfacet
  facet normal  0.000000e+000 -9.999999e-001  0.000000e+000
    outer loop
      vertex  2.500000e+000 -1.472500e+001  3.552714e-015
      vertex  0.000000e+000 -1.472500e+001  3.300000e+001
      vertex  0.000000e+000 -1.472500e+001  3.552714e-015
    endloop
  endfacet
  facet normal  -0.000000e+000  0.000000e+000  1.000000e+000
    outer loop
      vertex  2.500000e+000  1.472500e+001  3.300000e+001
      vertex  0.000000e+000  1.472500e+001  3.300000e+001
      vertex  2.500000e+000 -1.472500e+001  3.300000e+001
    endloop
  endfacet
  facet normal  0.000000e+000  0.000000e+000  1.000000e+000
    outer loop
      vertex  2.500000e+000 -1.472500e+001  3.300000e+001
      vertex  0.000000e+000  1.472500e+001  3.300000e+001
      vertex  0.000000e+000 -1.472500e+001  3.300000e+001
    endloop
  endfacet
  facet normal  0.000000e+000  9.999999e-001  0.000000e+000
    outer loop
      vertex  2.500000e+000  1.472500e+001  3.552714e-015
      vertex  0.000000e+000  1.472500e+001  3.552714e-015
      vertex  2.500000e+000  1.472500e+001  3.300000e+001
    endloop
  endfacet
  facet normal  0.000000e+000  9.999999e-001  0.000000e+000
    outer loop
      vertex  2.500000e+000  1.472500e+001  3.300000e+001
      vertex  0.000000e+000  1.472500e+001  3.552714e-015
      vertex  0.000000e+000  1.472500e+001  3.300000e+001
    endloop
  endfacet
  facet normal  0.000000e+000  0.000000e+000 -1.000000e+000
    outer loop
      vertex  2.500000e+000 -1.472500e+001  3.552714e-015
      vertex  0.000000e+000 -1.472500e+001  3.552714e-015
      vertex  2.500000e+000  1.472500e+001  3.552714e-015
    endloop
  endfacet
  facet normal  -0.000000e+000  0.000000e+000 -1.000000e+000
    outer loop
      vertex  2.500000e+000  1.472500e+001  3.552714e-015
      vertex  0.000000e+000 -1.472500e+001  3.552714e-015
      vertex  0.000000e+000  1.472500e+001  3.552714e-015
    endloop
  endfacet
endsolid CATIA STL
